<svg width="664" height="636" viewBox="0 0 664 636" fill="none" xmlns="http://www.w3.org/2000/svg">
<path d="M45.3344 514.493C46.0353 514.072 46.8375 513.849 47.6552 513.849C48.4728 513.849 49.2751 514.072 49.976 514.493L51.1627 515.184L52.3944 515.8C53.1399 516.133 53.777 516.669 54.2337 517.346C54.6903 518.023 54.9482 518.814 54.9781 519.63L55.1583 525.353L73.7696 524.768L73.5894 519.059C73.579 518.241 73.7916 517.436 74.2045 516.729C74.6173 516.022 75.2148 515.442 75.9327 515.049C76.7457 514.592 77.533 514.09 78.291 513.547C78.961 513.085 79.7434 512.813 80.5554 512.76C81.3673 512.707 82.1784 512.875 82.9026 513.246L87.9347 515.95L96.7372 499.532L91.705 496.843C90.9927 496.446 90.4013 495.864 89.9939 495.158C89.5866 494.451 89.3784 493.648 89.3918 492.832C89.422 491.905 89.3919 490.977 89.3016 490.053C89.2424 489.256 89.3962 488.458 89.7473 487.74C90.0984 487.022 90.6341 486.41 91.2995 485.968L96.1513 482.963L86.3424 467.146L81.4605 470.15C80.766 470.581 79.9648 470.81 79.1473 470.81C78.3298 470.81 77.5285 470.581 76.834 470.15C76.4434 469.91 76.0529 469.685 75.6473 469.474L74.4156 468.858C73.671 468.52 73.0352 467.981 72.579 467.302C72.1228 466.623 71.8642 465.83 71.8319 465.013L71.7718 459.26L53.1755 459.831L53.3558 465.539C53.3661 466.357 53.1535 467.163 52.7407 467.869C52.3278 468.576 51.7304 469.157 51.0124 469.549C50.1995 470.007 49.4122 470.508 48.6541 471.052C47.9873 471.527 47.2009 471.807 46.3836 471.86C45.5662 471.913 44.7503 471.737 44.0276 471.352L39.0105 468.663L30.208 485.081L35.2251 487.77C35.9375 488.167 36.5288 488.749 36.9362 489.456C37.3436 490.162 37.5517 490.966 37.5384 491.781C37.5156 492.708 37.5457 493.636 37.6285 494.56C37.6981 495.377 37.5432 496.198 37.1806 496.934C36.8179 497.67 36.2612 498.293 35.5706 498.736L30.7187 501.74L40.5426 517.557L45.3344 514.493ZM49.991 485.111C51.4155 482.454 53.5962 480.278 56.2573 478.859C58.9185 477.441 61.9405 476.843 64.9412 477.142C67.942 477.441 70.7866 478.623 73.1155 480.539C75.4443 482.455 77.1527 485.018 78.0246 487.905C78.8965 490.792 78.8928 493.873 78.0139 496.757C77.135 499.642 75.4204 502.201 73.0869 504.111C70.7535 506.022 67.906 507.197 64.9045 507.489C61.9031 507.78 58.8825 507.176 56.2248 505.751C52.6644 503.837 50.0085 500.589 48.8398 496.72C47.6712 492.851 48.0852 488.676 49.991 485.111Z" fill="#184FBD"/>
<path d="M97.9989 448.294C98.2929 447.801 98.7184 447.399 99.2277 447.134C99.7371 446.869 100.31 446.75 100.883 446.792H102.806C103.376 446.753 103.946 446.873 104.452 447.138C104.959 447.403 105.382 447.803 105.675 448.294L107.673 451.764L118.969 445.245L116.971 441.775C116.688 441.277 116.548 440.711 116.566 440.138C116.585 439.565 116.761 439.009 117.076 438.531C117.439 437.992 117.765 437.43 118.052 436.848C118.311 436.337 118.706 435.906 119.194 435.604C119.681 435.302 120.243 435.14 120.816 435.136H124.812V422.097H120.816C120.243 422.093 119.681 421.931 119.194 421.629C118.706 421.327 118.311 420.896 118.052 420.385C117.765 419.803 117.439 419.241 117.076 418.702C116.761 418.221 116.585 417.662 116.567 417.087C116.548 416.513 116.688 415.944 116.971 415.443L118.969 411.988L107.673 405.469L105.66 408.939C105.368 409.431 104.945 409.832 104.439 410.097C103.932 410.363 103.361 410.482 102.791 410.441H101.829H100.883C100.31 410.483 99.7371 410.364 99.2277 410.099C98.7184 409.834 98.2929 409.432 97.9989 408.939L96.0011 405.469L84.7051 411.988L86.7029 415.443C86.986 415.941 87.1259 416.507 87.1074 417.08C87.0888 417.653 86.9125 418.209 86.5978 418.687C86.2347 419.231 85.9085 419.798 85.6214 420.385C85.3622 420.896 84.9672 421.327 84.4797 421.629C83.9922 421.931 83.431 422.093 82.8575 422.097H78.8618V435.136H82.8575C83.431 435.14 83.9922 435.302 84.4797 435.604C84.9672 435.906 85.3622 436.337 85.6214 436.848C85.9085 437.435 86.2347 438.002 86.5978 438.546C86.9125 439.024 87.0888 439.581 87.1074 440.153C87.1259 440.726 86.986 441.292 86.7029 441.79L84.7051 445.245L96.0011 451.764L97.9989 448.294ZM91.1492 428.571C91.1551 426.46 91.787 424.397 92.9648 422.645C94.1426 420.892 95.8135 419.528 97.7665 418.724C99.7194 417.921 101.867 417.715 103.937 418.131C106.007 418.548 107.907 419.569 109.397 421.065C110.887 422.562 111.9 424.466 112.308 426.538C112.716 428.61 112.501 430.756 111.689 432.706C110.878 434.655 109.506 436.321 107.749 437.491C105.991 438.661 103.926 439.285 101.814 439.282C98.9804 439.274 96.2655 438.141 94.2658 436.133C92.2661 434.125 91.1452 431.405 91.1492 428.571Z" fill="#184FBD"/>
<path d="M590.29 48.8341C590.783 49.1256 591.184 49.5485 591.449 50.0552C591.714 50.562 591.833 51.1326 591.793 51.7032C591.793 52.0336 591.793 52.3491 591.793 52.6645C591.793 52.98 591.793 53.3104 591.793 53.6409C591.832 54.2112 591.712 54.7812 591.447 55.2876C591.182 55.7941 590.781 56.2172 590.29 56.51L586.821 58.5078L593.355 69.7587L596.81 67.7609C597.309 67.4749 597.879 67.3333 598.454 67.3518C599.03 67.3704 599.589 67.5484 600.069 67.866C600.611 68.2235 601.173 68.5495 601.752 68.8424C602.28 69.0941 602.727 69.4898 603.04 69.9841C603.354 70.4783 603.522 71.0511 603.524 71.6364V75.632H616.563V71.6364C616.568 71.0651 616.731 70.5063 617.033 70.0214C617.335 69.5365 617.765 69.1441 618.275 68.8875C618.854 68.5945 619.416 68.2685 619.957 67.9111C620.438 67.5935 620.997 67.4155 621.572 67.3969C622.148 67.3783 622.717 67.5199 623.217 67.806L626.672 69.8038L633.191 58.5078L629.706 56.495C629.215 56.2021 628.815 55.7791 628.55 55.2726C628.285 54.7662 628.165 54.1962 628.204 53.6259C628.204 53.3105 628.204 52.995 628.204 52.6645C628.204 52.3341 628.204 52.0336 628.204 51.7032C628.163 51.1326 628.282 50.562 628.548 50.0552C628.813 49.5485 629.214 49.1256 629.706 48.8341L633.176 46.8363L626.657 35.5403L623.202 37.5381C622.704 37.8223 622.136 37.9616 621.563 37.9404C620.989 37.9192 620.433 37.7382 619.957 37.418C619.417 37.0725 618.846 36.742 618.26 36.4416C617.742 36.1937 617.304 35.8068 616.993 35.324C616.683 34.8412 616.513 34.2816 616.503 33.7077V29.697H603.524V33.7077C603.521 34.2794 603.359 34.8388 603.056 35.3241C602.754 35.8093 602.323 36.2013 601.812 36.4566C601.226 36.757 600.655 37.0875 600.114 37.433C599.638 37.7533 599.082 37.9342 598.509 37.9554C597.936 37.9767 597.368 37.8373 596.87 37.5531L593.415 35.5553L586.896 46.8513L590.29 48.8341ZM609.983 41.9844C612.096 41.9844 614.161 42.6108 615.917 43.7843C617.673 44.9579 619.042 46.6259 619.85 48.5774C620.659 50.529 620.87 52.6764 620.458 54.7481C620.046 56.8199 619.029 58.7229 617.535 60.2165C616.042 61.7102 614.139 62.7273 612.067 63.1394C609.995 63.5515 607.848 63.34 605.896 62.5317C603.945 61.7233 602.277 60.3544 601.103 58.5981C599.93 56.8418 599.303 54.7769 599.303 52.6645C599.307 49.8332 600.434 47.119 602.436 45.1169C604.438 43.1149 607.152 41.9884 609.983 41.9844Z" fill="#194CB4"/>
<path d="M567.473 137.73C565.963 147.903 561.563 157.428 554.797 165.173C548.031 172.919 539.183 178.558 529.305 181.421C519.428 184.285 508.935 184.251 499.076 181.325C489.217 178.399 480.405 172.704 473.688 164.916C466.971 157.128 462.632 147.575 461.187 137.392C459.741 127.21 461.249 116.827 465.533 107.477C469.816 98.1272 476.695 90.2039 485.35 84.6492C494.005 79.0945 504.074 76.142 514.358 76.1427V129.844L567.473 137.73Z" fill="#194CB4"/>
<path d="M578.904 118.923C578.908 121.558 578.712 124.189 578.318 126.794L525.218 118.923V65.2523C532.27 65.2464 539.254 66.631 545.77 69.3269C552.286 72.0227 558.207 75.977 563.193 80.9634C568.18 85.9498 572.134 91.8704 574.83 98.3866C577.526 104.903 578.91 111.886 578.904 118.938V118.923Z" fill="#3674EF"/>
<path d="M67.4606 225.98V270.247L38.7249 303.91C31.8424 298.032 26.9269 290.186 24.6408 281.429C22.3547 272.672 22.8077 263.424 25.939 254.932C29.0702 246.441 34.7291 239.113 42.1532 233.936C49.5773 228.759 58.4098 225.982 67.4606 225.98Z" fill="#3674EF"/>
<path d="M120.741 274.754C120.739 283.211 118.315 291.49 113.755 298.612C109.195 305.735 102.69 311.402 95.01 314.943C87.3302 318.484 78.7967 319.752 70.4192 318.595C62.0417 317.438 54.1708 313.906 47.7378 308.416L76.4584 274.754V230.486C82.2729 230.482 88.031 231.625 93.4036 233.848C98.7762 236.071 103.658 239.332 107.769 243.443C111.881 247.554 115.141 252.436 117.364 257.809C119.588 263.181 120.73 268.939 120.726 274.754H120.741Z" fill="#EBEBEB"/>
<path d="M120.741 274.754C120.739 283.211 118.315 291.49 113.755 298.612C109.195 305.735 102.69 311.402 95.01 314.943C87.3302 318.484 78.7967 319.752 70.4192 318.595C62.0417 317.438 54.1708 313.906 47.7378 308.416L76.4584 274.754V230.486C82.2729 230.482 88.031 231.625 93.4036 233.848C98.7762 236.071 103.658 239.332 107.769 243.443C111.881 247.554 115.141 252.436 117.364 257.809C119.588 263.181 120.73 268.939 120.726 274.754H120.741Z" fill="#184FBD"/>
<path d="M48.5038 191.566H47.0017V248.662H48.5038V191.566Z" fill="#194CB4"/>
<path d="M47.7378 192.317C46.7954 192.317 45.8741 192.037 45.0908 191.514C44.3074 190.99 43.6971 190.245 43.3371 189.374C42.9771 188.503 42.8837 187.545 43.0687 186.621C43.2536 185.697 43.7086 184.848 44.3761 184.183C45.0435 183.518 45.8934 183.065 46.8181 182.883C47.7427 182.701 48.7006 182.798 49.5705 183.16C50.4403 183.523 51.1829 184.136 51.7043 184.921C52.2258 185.706 52.5025 186.628 52.4995 187.57C52.4955 188.831 51.9921 190.038 51.0995 190.928C50.207 191.818 48.9981 192.317 47.7378 192.317ZM47.7378 184.311C47.0931 184.311 46.4629 184.502 45.9268 184.86C45.3908 185.218 44.973 185.727 44.7263 186.323C44.4796 186.919 44.415 187.574 44.5408 188.206C44.6666 188.839 44.977 189.419 45.4329 189.875C45.8888 190.331 46.4696 190.642 47.1019 190.767C47.7342 190.893 48.3896 190.829 48.9852 190.582C49.5808 190.335 50.0899 189.917 50.4481 189.381C50.8062 188.845 50.9974 188.215 50.9974 187.57C50.9974 186.706 50.654 185.877 50.0427 185.266C49.4314 184.654 48.6023 184.311 47.7378 184.311Z" fill="#194CB4"/>
<path d="M104.248 183.56H59.8899V185.558H104.248V183.56Z" fill="#194CB4"/>
<path d="M84.9904 187.57H59.8899V189.568H84.9904V187.57Z" fill="#194CB4"/>
<path d="M577.192 148.921H520.096V150.423H577.192V148.921Z" fill="#C7C7C7"/>
<path d="M581.203 154.434C580.26 154.437 579.338 154.16 578.553 153.638C577.768 153.117 577.155 152.374 576.793 151.504C576.43 150.635 576.333 149.677 576.515 148.752C576.697 147.827 577.15 146.978 577.815 146.31C578.48 145.643 579.329 145.188 580.253 145.003C581.177 144.818 582.135 144.911 583.006 145.271C583.877 145.631 584.622 146.241 585.146 147.025C585.67 147.808 585.949 148.729 585.949 149.672C585.951 150.296 585.83 150.915 585.592 151.493C585.355 152.071 585.005 152.596 584.564 153.038C584.123 153.48 583.599 153.831 583.023 154.071C582.446 154.31 581.827 154.434 581.203 154.434ZM581.203 146.427C580.557 146.424 579.924 146.613 579.386 146.97C578.848 147.327 578.428 147.836 578.179 148.432C577.93 149.029 577.865 149.685 577.99 150.319C578.115 150.953 578.426 151.535 578.883 151.992C579.339 152.448 579.922 152.759 580.555 152.885C581.189 153.01 581.846 152.944 582.442 152.695C583.038 152.447 583.547 152.027 583.904 151.488C584.261 150.95 584.45 150.318 584.447 149.672C584.455 149.241 584.377 148.812 584.218 148.412C584.058 148.011 583.82 147.646 583.518 147.339C583.216 147.031 582.856 146.787 582.458 146.62C582.061 146.453 581.634 146.367 581.203 146.367V146.427Z" fill="#C7C7C7"/>
<path d="M640.071 146.668H595.713V148.665H640.071V146.668Z" fill="#C7C7C7"/>
<path d="M620.814 150.678H595.713V152.676H620.814V150.678Z" fill="#C7C7C7"/>
<path d="M272.711 134.35H66.2891V0H272.711V134.35ZM67.7912 132.848H271.209V1.50213H67.7912V132.848Z" fill="#194CB4"/>
<path d="M272.711 19.1671H66.2891V0H272.711V19.1671ZM67.7912 17.665H271.209V1.50213H67.7912V17.665Z" fill="#194CB4"/>
<path d="M83.6085 9.67369C83.6085 10.565 83.3442 11.4362 82.849 12.1773C82.3538 12.9184 81.65 13.496 80.8266 13.837C80.0032 14.1781 79.0971 14.2674 78.2229 14.0935C77.3488 13.9196 76.5458 13.4904 75.9156 12.8602C75.2854 12.2299 74.8562 11.427 74.6823 10.5528C74.5084 9.67869 74.5977 8.77261 74.9387 7.94918C75.2798 7.12574 75.8574 6.42194 76.5985 5.92678C77.3395 5.43161 78.2108 5.16731 79.1021 5.16731C80.2972 5.16731 81.4435 5.64209 82.2886 6.4872C83.1337 7.33231 83.6085 8.47852 83.6085 9.67369Z" fill="#C7C7C7"/>
<path d="M101.814 9.67369C101.814 10.565 101.55 11.4362 101.055 12.1773C100.56 12.9184 99.8558 13.496 99.0324 13.837C98.209 14.1781 97.3029 14.2674 96.4287 14.0935C95.5546 13.9196 94.7516 13.4904 94.1214 12.8602C93.4912 12.2299 93.062 11.427 92.8881 10.5528C92.7142 9.67869 92.8035 8.77261 93.1445 7.94918C93.4856 7.12574 94.0632 6.42194 94.8043 5.92678C95.5454 5.43161 96.4166 5.16731 97.3079 5.16731C98.5031 5.16731 99.6493 5.64209 100.494 6.4872C101.339 7.33231 101.814 8.47852 101.814 9.67369Z" fill="#EBEBEB"/>
<path d="M119.84 9.67369C119.84 10.565 119.575 11.4362 119.08 12.1773C118.585 12.9184 117.881 13.496 117.058 13.837C116.234 14.1781 115.328 14.2674 114.454 14.0935C113.58 13.9196 112.777 13.4904 112.147 12.8602C111.517 12.2299 111.087 11.427 110.913 10.5528C110.74 9.67869 110.829 8.77261 111.17 7.94918C111.511 7.12574 112.089 6.42194 112.83 5.92678C113.571 5.43161 114.442 5.16731 115.333 5.16731C116.528 5.16731 117.675 5.64209 118.52 6.4872C119.365 7.33231 119.84 8.47852 119.84 9.67369Z" fill="url(#paint0_linear_379_5971)"/>
<path d="M504.309 636C592.454 636 663.909 623.592 663.909 608.286C663.909 592.98 592.454 580.572 504.309 580.572C416.163 580.572 344.708 592.98 344.708 608.286C344.708 623.592 416.163 636 504.309 636Z" fill="#1645A4"/>
<path d="M0.736084 572.19L83.4581 571.829L166.18 571.694L331.639 571.439L497.098 571.694L579.821 571.814L662.543 572.19L579.821 572.55L497.098 572.685L331.639 572.941L166.18 572.685L83.4581 572.55L0.736084 572.19Z" fill="#263238"/>
<path d="M556.132 41.1582H107.162V544.01H556.132V41.1582Z" fill="#37474F"/>
<path d="M549.477 49.1195H114.958V369.733H549.477V49.1195Z" fill="#0B2458"/>
<path d="M421.586 78.0955H242.833V82.0611H421.586V78.0955Z" fill="#1645A4"/>
<path d="M391.033 86.3572H273.402V90.3228H391.033V86.3572Z" fill="#1645A4"/>
<path d="M393.632 312.337C389.269 314.736 384.416 316.106 379.442 316.341C374.469 316.576 369.508 315.671 364.938 313.693C360.369 311.716 356.312 308.719 353.079 304.933C349.846 301.147 347.521 296.671 346.284 291.848C345.047 287.025 344.929 281.984 345.94 277.108C346.951 272.233 349.064 267.654 352.117 263.721C355.17 259.788 359.083 256.605 363.555 254.417C368.027 252.229 372.941 251.092 377.92 251.095V283.721L393.632 312.337Z" fill="url(#paint1_linear_379_5971)"/>
<path d="M397.267 257.524L377.92 283.782V251.095C384.894 251.096 391.68 253.351 397.267 257.524Z" fill="url(#paint2_linear_379_5971)"/>
<path d="M410.546 283.721C410.563 291.926 407.471 299.831 401.894 305.848L377.86 283.721L397.267 257.524C401.379 260.544 404.724 264.489 407.031 269.039C409.337 273.59 410.542 278.619 410.546 283.721Z" fill="url(#paint3_linear_379_5971)"/>
<path d="M413.625 320.989C411.244 323.582 408.459 325.774 405.378 327.478L389.666 298.938L413.625 320.989Z" fill="url(#paint4_linear_379_5971)"/>
<path d="M289.835 252.342L280.822 283.721V316.363C272.289 316.18 264.166 312.661 258.195 306.561C252.225 300.461 248.881 292.265 248.881 283.729C248.881 275.193 252.225 266.997 258.195 260.897C264.166 254.797 272.289 251.278 280.822 251.095C283.87 251.094 286.903 251.514 289.835 252.342Z" fill="url(#paint5_linear_379_5971)"/>
<path d="M300.2 310.009C294.609 314.145 287.836 316.373 280.882 316.363V283.721L300.2 310.009Z" fill="url(#paint6_linear_379_5971)"/>
<path d="M313.508 283.721C313.514 288.841 312.311 293.89 309.999 298.457C307.686 303.025 304.329 306.982 300.2 310.009L280.882 283.721L306.253 263.217C310.956 269.015 313.519 276.256 313.508 283.721Z" fill="url(#paint7_linear_379_5971)"/>
<path d="M313.509 252.643L288.078 273.162L297.09 241.767C303.55 243.62 309.283 247.417 313.509 252.643Z" fill="url(#paint8_linear_379_5971)"/>
<path d="M183.83 251.095V283.721L161.899 307.846C157.031 303.413 153.618 297.611 152.108 291.203C150.598 284.795 151.063 278.079 153.44 271.94C155.818 265.8 159.997 260.524 165.429 256.803C170.861 253.083 177.291 251.093 183.875 251.095H183.83Z" fill="url(#paint9_linear_379_5971)"/>
<path d="M207.203 260.934L183.83 283.721V251.095C188.186 251.09 192.499 251.957 196.513 253.647C200.528 255.337 204.163 257.815 207.203 260.934Z" fill="url(#paint10_linear_379_5971)"/>
<path d="M216.471 283.722C216.475 288.566 215.398 293.351 213.319 297.726C211.24 302.102 208.212 305.96 204.454 309.017L183.83 283.722L207.203 260.934C213.149 267.029 216.475 275.207 216.471 283.722Z" fill="url(#paint11_linear_379_5971)"/>
<path d="M204.454 317.609C198.389 322.548 190.752 325.145 182.934 324.928C175.115 324.71 167.635 321.692 161.854 316.423L183.83 292.314L204.454 317.609Z" fill="url(#paint12_linear_379_5971)"/>
<path d="M474.972 251.095V316.363C466.438 316.18 458.316 312.661 452.345 306.561C446.375 300.461 443.031 292.265 443.031 283.729C443.031 275.193 446.375 266.997 452.345 260.897C458.316 254.797 466.438 251.278 474.972 251.095Z" fill="url(#paint13_linear_379_5971)"/>
<path d="M483.204 252.147L474.972 283.691V251.095C477.749 251.098 480.515 251.452 483.204 252.147Z" fill="#263238"/>
<path d="M513.216 281.844C513.227 285.956 512.463 290.033 510.963 293.861L480.59 281.844L488.836 250.299C495.817 252.12 501.997 256.204 506.408 261.912C510.819 267.62 513.214 274.63 513.216 281.844Z" fill="url(#paint14_linear_379_5971)"/>
<path d="M505.33 295.693C502.926 301.786 498.746 307.014 493.332 310.7C487.918 314.386 481.522 316.359 474.972 316.363V283.721L505.33 295.693Z" fill="url(#paint15_linear_379_5971)"/>
<path opacity="0.2" d="M206.888 335.56H168.794V339.225H206.888V335.56Z" fill="#A3B2CF"/>
<path opacity="0.2" d="M194.074 343.191H168.794V346.856H194.074V343.191Z" fill="#A3B2CF"/>
<path opacity="0.3" d="M162.605 335.5H151.204V346.901H162.605V335.5Z" fill="#A3B2CF"/>
<path opacity="0.2" d="M303.925 335.56H265.831V339.225H303.925V335.56Z" fill="#A3B2CF"/>
<path opacity="0.2" d="M291.112 343.191H265.831V346.856H291.112V343.191Z" fill="#A3B2CF"/>
<path opacity="0.3" d="M259.657 335.5H248.256V346.901H259.657V335.5Z" fill="#A3B2CF"/>
<path opacity="0.2" d="M400.977 335.56H362.883V339.225H400.977V335.56Z" fill="#A3B2CF"/>
<path opacity="0.2" d="M388.164 343.191H362.883V346.856H388.164V343.191Z" fill="#A3B2CF"/>
<path opacity="0.3" d="M356.695 335.5H345.294V346.901H356.695V335.5Z" fill="#A3B2CF"/>
<path opacity="0.2" d="M498.015 335.56H459.921V339.225H498.015V335.56Z" fill="#A3B2CF"/>
<path opacity="0.2" d="M485.202 343.191H459.921V346.856H485.202V343.191Z" fill="#A3B2CF"/>
<path opacity="0.3" d="M453.747 335.5H442.346V346.901H453.747V335.5Z" fill="#A3B2CF"/>
<path d="M151.204 110.136L241.707 109.911C271.885 109.911 302.048 109.911 332.21 110.136C302.048 110.346 271.885 110.286 241.707 110.376L151.204 110.136Z" fill="#455A64"/>
<path d="M151.204 117.331L241.707 117.106C271.885 117.106 302.048 117.106 332.21 117.331C302.048 117.541 271.885 117.481 241.707 117.571L151.204 117.331Z" fill="#455A64"/>
<path d="M151.204 124.526L241.707 124.286C271.885 124.376 302.048 124.286 332.21 124.526C302.048 124.737 271.885 124.676 241.707 124.767L151.204 124.526Z" fill="#455A64"/>
<path d="M151.204 131.721L241.707 131.481C271.885 131.571 302.048 131.481 332.21 131.721C302.048 131.917 271.885 131.872 241.707 131.947L151.204 131.721Z" fill="#455A64"/>
<path d="M151.204 138.856L241.707 138.616C271.885 138.706 302.048 138.616 332.21 138.856C302.048 139.052 271.885 139.007 241.707 139.082L151.204 138.856Z" fill="#455A64"/>
<path d="M151.204 146.112L241.707 145.871C271.885 145.962 302.048 145.871 332.21 146.112C302.048 146.307 271.885 146.262 241.707 146.337L151.204 146.112Z" fill="#455A64"/>
<path d="M151.204 153.292L241.707 153.067C271.885 153.067 302.048 153.067 332.21 153.292C302.048 153.502 271.885 153.457 241.707 153.532L151.204 153.292Z" fill="#455A64"/>
<path d="M151.204 160.487L241.707 160.262C271.885 160.337 302.048 160.262 332.21 160.487C302.048 160.697 271.885 160.637 241.707 160.727L151.204 160.487Z" fill="#455A64"/>
<path d="M151.204 167.682L241.707 167.457C271.885 167.532 302.048 167.457 332.21 167.682C302.048 167.893 271.885 167.832 241.707 167.923L151.204 167.682Z" fill="#455A64"/>
<path d="M151.204 174.907L241.707 174.667C271.885 174.757 302.048 174.667 332.21 174.907C302.048 175.103 271.885 175.058 241.707 175.148L151.204 174.907Z" fill="#455A64"/>
<path d="M151.204 182.073L241.707 181.832C271.885 181.922 302.048 181.832 332.21 182.073C302.048 182.268 271.885 182.223 241.707 182.298L151.204 182.073Z" fill="#455A64"/>
<path d="M151.204 189.268L241.707 189.027C271.885 189.118 302.048 189.027 332.21 189.268C302.048 189.463 271.885 189.418 241.707 189.493L151.204 189.268Z" fill="#455A64"/>
<path d="M151.204 196.463L241.707 196.223C271.885 196.298 302.048 196.223 332.21 196.463C302.048 196.658 271.885 196.613 241.707 196.688L151.204 196.463Z" fill="#455A64"/>
<path d="M151.204 203.643L241.707 203.418C271.885 203.493 302.048 203.418 332.21 203.643C302.048 203.853 271.885 203.793 241.707 203.884L151.204 203.643Z" fill="#455A64"/>
<path d="M151.204 210.838L241.707 210.613C271.885 210.613 302.048 210.613 332.21 210.838C302.048 211.049 271.885 210.989 241.707 211.079L151.204 210.838Z" fill="#455A64"/>
<path d="M184.07 160.487H170.341V219.22H184.07V160.487Z" fill="url(#paint16_linear_379_5971)"/>
<path d="M209.547 135.642H195.817V219.22H209.547V135.642Z" fill="url(#paint17_linear_379_5971)"/>
<path d="M235.008 153.547H221.278V219.22H235.008V153.547Z" fill="url(#paint18_linear_379_5971)"/>
<path d="M260.469 131.721H246.739V219.235H260.469V131.721Z" fill="url(#paint19_linear_379_5971)"/>
<path d="M285.929 143.453H272.2V219.22H285.929V143.453Z" fill="url(#paint20_linear_379_5971)"/>
<path d="M311.391 186.384H297.661V219.22H311.391V186.384Z" fill="url(#paint21_linear_379_5971)"/>
<path d="M156.116 105.089L156.491 133.629L156.747 162.169C156.927 181.201 156.972 200.218 157.002 219.25L156.116 218.394H200.143L244.17 218.499L288.183 218.785L332.21 219.295L288.183 219.821L244.17 220.106L200.143 220.212H156.116H155.229V219.34C155.229 200.323 155.305 181.307 155.485 162.26L155.74 133.719L156.116 105.089Z" fill="#455A64"/>
<path d="M184.07 225.259H170.341V226.475H184.07V225.259Z" fill="#455A64"/>
<path d="M209.547 225.259H195.817V226.475H209.547V225.259Z" fill="#455A64"/>
<path d="M235.008 225.259H221.278V226.475H235.008V225.259Z" fill="#455A64"/>
<path d="M260.469 225.259H246.739V226.475H260.469V225.259Z" fill="#455A64"/>
<path d="M285.929 225.259H272.2V226.475H285.929V225.259Z" fill="#455A64"/>
<path d="M311.391 225.259H297.661V226.475H311.391V225.259Z" fill="#455A64"/>
<path d="M433.784 154.118C433.779 161.544 431.591 168.804 427.491 174.995C423.391 181.186 417.561 186.035 410.726 188.937L395.945 154.118H433.784Z" fill="url(#paint22_linear_379_5971)"/>
<path d="M391.123 151.519L405.904 186.354C405.904 186.354 405.904 186.354 405.829 186.354C404.673 186.819 403.516 187.255 402.359 187.615C396.705 189.376 390.716 189.783 384.875 188.804C379.035 187.825 373.506 185.487 368.735 181.979C363.964 178.471 360.084 173.891 357.408 168.608C354.732 163.325 353.335 157.487 353.33 151.564C353.338 147.756 353.91 143.97 355.027 140.329C356.844 134.479 360.057 129.16 364.388 124.829C368.719 120.498 374.038 117.285 379.887 115.468C387.226 113.193 395.081 113.193 402.419 115.468C410.121 117.849 416.857 122.634 421.641 129.122C426.426 135.609 429.007 143.458 429.007 151.519H391.123Z" fill="url(#paint23_linear_379_5971)"/>
<path d="M391.123 151.519L405.904 186.354C405.904 186.354 405.904 186.354 405.829 186.354C404.673 186.819 403.516 187.255 402.359 187.616C396.705 189.376 390.716 189.783 384.875 188.804C379.035 187.825 373.506 185.487 368.735 181.979C363.964 178.471 360.084 173.891 357.408 168.608C354.732 163.325 353.335 157.487 353.33 151.564C353.352 142.532 356.607 133.805 362.504 126.963C368.402 120.121 376.553 115.616 385.484 114.262C394.415 112.908 403.535 114.795 411.196 119.582C418.856 124.368 424.551 131.738 427.249 140.359C428.374 143.998 428.946 147.785 428.947 151.595L391.123 151.519Z" fill="url(#paint24_linear_379_5971)"/>
<path d="M391.138 151.534L366.488 180.195C361.682 176.063 357.992 170.788 355.758 164.857C353.523 158.926 352.815 152.528 353.7 146.251C354.584 139.975 357.032 134.022 360.819 128.939C364.605 123.856 369.609 119.807 375.37 117.163C381.131 114.52 387.464 113.367 393.786 113.811C400.109 114.255 406.219 116.281 411.554 119.704C416.888 123.126 421.277 127.835 424.317 133.397C427.356 138.959 428.948 145.196 428.947 151.534H391.138Z" fill="url(#paint25_linear_379_5971)"/>
<path d="M453.357 201.63H424.786L389.411 166.255L389.922 165.745L425.087 200.909H453.357V201.63Z" fill="white"/>
<path d="M391.649 164.017H387.668V167.998H391.649V164.017Z" fill="white"/>
<path d="M453.356 174.262H421.166L405.874 158.985L406.385 158.474L421.466 173.541H453.356V174.262Z" fill="white"/>
<path d="M408.127 156.732H404.147V160.712H408.127V156.732Z" fill="white"/>
<path d="M453.357 147.178H404.673V147.914H453.357V147.178Z" fill="white"/>
<path d="M406.145 145.556H402.164V149.537H406.145V145.556Z" fill="white"/>
<path opacity="0.4" d="M499.787 143.558H464.427V146.848H499.787V143.558Z" fill="#A3B2CF"/>
<path opacity="0.4" d="M510.317 150.423H464.427V153.713H510.317V150.423Z" fill="#A3B2CF"/>
<path opacity="0.4" d="M488.957 157.288H464.427V160.577H488.957V157.288Z" fill="#A3B2CF"/>
<path opacity="0.4" d="M457.337 143.558H449.361V151.534H457.337V143.558Z" fill="#A3B2CF"/>
<path opacity="0.4" d="M504.098 170.131H464.427V173.42H504.098V170.131Z" fill="#A3B2CF"/>
<path opacity="0.4" d="M497.504 177.01H464.427V180.3H497.504V177.01Z" fill="#A3B2CF"/>
<path opacity="0.4" d="M510.317 183.875H464.427V187.165H510.317V183.875Z" fill="#A3B2CF"/>
<path d="M457.337 170.131H449.361V178.107H457.337V170.131Z" fill="url(#paint26_linear_379_5971)"/>
<path opacity="0.4" d="M504.098 196.718H464.427V200.008H504.098V196.718Z" fill="#A3B2CF"/>
<path d="M497.504 203.583H464.427V206.873H497.504V203.583Z" fill="#455A64"/>
<path opacity="0.4" d="M510.317 210.463H464.427V213.752H510.317V210.463Z" fill="#A3B2CF"/>
<path d="M457.337 196.718H449.361V204.695H457.337V196.718Z" fill="#A6A6A6"/>
<path d="M315.371 378.13H114.958V535.418H315.371V378.13Z" fill="#263238"/>
<path d="M286.59 391.844H143.708V395.014H286.59V391.844Z" fill="#455A64"/>
<path d="M262.166 398.454H168.148V401.623H262.166V398.454Z" fill="#455A64"/>
<path d="M159.42 513.697H151.414V521.703H159.42V513.697Z" fill="url(#paint27_linear_379_5971)"/>
<path d="M252.718 513.697H164.993V516.07H252.718V513.697Z" fill="#455A64"/>
<path d="M221.669 519.345H164.993V521.718H221.669V519.345Z" fill="#455A64"/>
<path d="M146.112 433.273C169.124 433.123 192.137 433.168 215.209 433.108C238.282 433.048 261.234 433.108 284.307 433.273C261.295 433.408 238.282 433.378 215.209 433.438C192.137 433.498 169.124 433.378 146.112 433.273Z" fill="#455A64"/>
<path d="M146.112 446.882C169.124 446.732 192.137 446.777 215.209 446.717C238.282 446.657 261.234 446.717 284.307 446.882C261.295 447.033 238.282 446.987 215.209 447.048C192.137 447.108 169.124 447.018 146.112 446.882Z" fill="#455A64"/>
<path d="M146.112 460.522C169.124 460.386 192.137 460.416 215.209 460.356C238.282 460.296 261.234 460.356 284.307 460.522C261.295 460.672 238.282 460.627 215.209 460.687C192.137 460.747 169.124 460.672 146.112 460.522Z" fill="#455A64"/>
<path d="M146.112 474.161C169.124 474.026 192.137 474.056 215.209 473.996C238.282 473.936 261.234 473.996 284.307 474.161C261.295 474.311 238.282 474.281 215.209 474.341C192.137 474.401 169.124 474.311 146.112 474.161Z" fill="#455A64"/>
<path d="M146.112 487.815C169.124 487.665 192.137 487.71 215.209 487.65C238.282 487.59 261.234 487.65 284.307 487.815C261.295 487.95 238.282 487.92 215.209 487.981C192.137 488.041 169.124 487.95 146.112 487.815Z" fill="#455A64"/>
<path d="M173.916 424.365C174.126 437.119 174.066 449.902 174.156 462.61C174.247 475.318 174.156 488.146 173.916 500.854C173.706 488.101 173.766 475.318 173.676 462.61C173.586 449.902 173.721 437.119 173.916 424.365Z" fill="#455A64"/>
<path d="M197.8 424.365C197.995 437.119 197.95 449.902 198.025 462.61C198.1 475.318 198.025 488.146 197.8 500.854C197.589 488.101 197.634 475.318 197.559 462.61C197.484 449.902 197.589 437.119 197.8 424.365Z" fill="#455A64"/>
<path d="M221.669 424.365C221.879 437.119 221.819 449.902 221.909 462.61C221.999 475.318 221.909 488.146 221.669 500.854C221.473 488.101 221.518 475.318 221.443 462.61C221.368 449.902 221.473 437.119 221.669 424.365Z" fill="#455A64"/>
<path d="M245.552 424.365C245.748 437.119 245.703 449.902 245.778 462.61C245.853 475.318 245.778 488.146 245.552 500.854C245.342 488.101 245.402 475.318 245.312 462.61C245.222 449.902 245.342 437.119 245.552 424.365Z" fill="#455A64"/>
<path d="M269.421 424.365C269.631 437.119 269.571 449.902 269.661 462.61C269.752 475.318 269.661 488.146 269.421 500.854C269.226 488.101 269.271 475.318 269.196 462.61C269.121 449.902 269.226 437.119 269.421 424.365Z" fill="#455A64"/>
<path opacity="0.5" d="M149.597 477.916C153.803 477.916 156.326 464.052 162.29 464.052C168.253 464.052 168.884 474.161 173.916 474.161C178.948 474.161 178.783 456.406 185.542 456.406C192.302 456.406 190.725 463.616 197.8 463.616C204.875 463.616 202.186 446.882 209.576 446.882C216.967 446.882 213.978 469.94 221.593 469.94C226.46 469.94 228.353 462.61 234.166 462.61C238.012 462.61 240.28 466.275 245.312 466.275C250.344 466.275 251.441 452.2 257.735 452.2C264.029 452.2 264.735 460.522 269.346 460.522C273.958 460.522 275.64 446.882 284.112 446.882V500.869H149.521L149.597 477.916Z" fill="url(#paint28_linear_379_5971)"/>
<path d="M149.597 478.577V477.255C150.873 477.255 152.601 474.011 153.908 471.652C156.116 467.582 158.414 463.391 162.29 463.391C166.165 463.391 167.893 466.47 169.53 469.174C170.807 471.307 172.129 473.5 173.916 473.5C175.704 473.5 176.845 469.234 177.852 466.125C179.474 461.017 181.156 455.745 185.543 455.745C189.448 455.745 190.995 457.818 192.347 459.635C193.699 461.453 194.796 462.94 197.8 462.94C200.504 462.94 201.57 459.035 202.607 455.264C203.808 450.758 205.07 446.252 209.577 446.252C214.083 446.252 215.194 452.035 216.411 458.163C217.388 463.12 218.604 469.294 221.669 469.294C223.501 469.294 225.003 467.792 226.581 466.17C228.518 464.202 230.711 461.979 234.241 461.979C236.161 462.088 238.016 462.705 239.619 463.766C241.339 464.898 243.331 465.547 245.387 465.644C247.13 465.644 248.722 462.294 249.999 459.635C251.876 455.685 253.814 451.599 257.81 451.599C261.805 451.599 263.713 454.258 265.426 456.601C266.687 458.314 267.874 459.936 269.421 459.936C270.968 459.936 272.26 457.337 273.582 455.054C275.85 451.148 278.674 446.297 284.187 446.297V447.618C279.951 447.618 277.503 451.839 275.34 455.565C273.492 458.749 272.02 461.273 269.421 461.273C266.823 461.273 265.275 459.305 263.743 457.217C262.211 455.129 260.604 452.936 257.735 452.936C254.866 452.936 253.303 456.721 251.726 460.071C249.954 463.796 248.437 467.011 245.327 467.011C242.899 466.9 240.545 466.143 238.507 464.818C237.257 463.966 235.809 463.449 234.302 463.316C231.763 463.316 229.945 465.163 228.203 466.936C226.46 468.708 224.553 470.646 221.729 470.646C217.027 470.646 215.84 464.638 214.594 458.359C213.647 453.567 212.461 447.588 209.637 447.588C206.813 447.588 205.536 451.824 204.514 455.55C203.283 460.056 202.126 464.322 197.86 464.322C196.416 464.367 194.988 464.016 193.73 463.306C192.472 462.596 191.433 461.555 190.725 460.296C189.463 458.599 188.367 457.112 185.603 457.112C182.839 457.112 181.096 462.294 179.744 466.455C178.242 471.157 177.056 474.882 173.976 474.882C170.897 474.882 169.47 472.388 167.848 469.745C166.225 467.101 164.843 464.773 162.35 464.773C159.856 464.773 157.528 468.874 155.74 472.163C153.712 475.738 152.165 478.577 149.597 478.577Z" fill="url(#paint29_linear_379_5971)"/>
<path d="M149.597 425.192C149.747 437.81 149.882 450.412 149.897 463.03L150.032 500.869L149.597 500.553L216.892 500.643H250.539L284.187 500.809L250.539 500.974H216.892L149.597 501.064H149.146V500.869L149.296 463.045C149.311 450.412 149.446 437.779 149.597 425.192Z" fill="#455A64"/>
<path d="M549.477 378.13H323.708V535.418H549.477V378.13Z" fill="#263238"/>
<path d="M508.034 391.844H365.152V395.014H508.034V391.844Z" fill="#455A64"/>
<path d="M483.594 398.454H389.576V401.623H483.594V398.454Z" fill="#455A64"/>
<path d="M358.347 479.839H348.328V489.858H358.347V479.839Z" fill="url(#paint30_linear_379_5971)"/>
<path d="M419.288 479.839H365.317V482.798H419.288V479.839Z" fill="#455A64"/>
<path d="M436.232 486.899H365.317V489.858H436.232V486.899Z" fill="#455A64"/>
<path d="M358.347 498.826H348.328V508.845H358.347V498.826Z" fill="#455A64"/>
<path d="M406.325 498.826H365.317V501.785H406.325V498.826Z" fill="#455A64"/>
<path d="M436.232 505.886H365.317V508.845H436.232V505.886Z" fill="#455A64"/>
<path d="M380.503 440.934C380.501 445.174 378.957 449.269 376.158 452.454C373.359 455.64 369.498 457.699 365.293 458.247C361.089 458.796 356.828 457.796 353.306 455.435C349.784 453.074 347.241 449.512 346.151 445.415C345.061 441.317 345.499 436.963 347.382 433.164C349.266 429.365 352.467 426.381 356.388 424.768C360.31 423.155 364.684 423.023 368.696 424.397C372.707 425.772 376.081 428.558 378.19 432.237C379.707 434.884 380.504 437.883 380.503 440.934Z" fill="#455A64"/>
<path d="M378.205 432.237L363.034 440.934V423.449C366.112 423.45 369.136 424.263 371.799 425.806C374.463 427.349 376.673 429.567 378.205 432.237Z" fill="url(#paint31_linear_379_5971)"/>
<path d="M374.94 442.828C376.006 436.235 371.526 430.026 364.934 428.96C358.341 427.893 352.132 432.373 351.066 438.966C349.999 445.558 354.479 451.767 361.071 452.834C367.664 453.9 373.873 449.421 374.94 442.828Z" fill="white"/>
<path d="M368.066 438.245H358.001V439.672H368.066V438.245Z" fill="#263238"/>
<path d="M370.559 442.196H355.508V443.623H370.559V442.196Z" fill="#A6A6A6"/>
<path d="M429.412 440.934C429.416 441.789 429.351 442.643 429.217 443.487C428.545 447.927 426.178 451.934 422.613 454.664C419.049 457.395 414.564 458.637 410.102 458.13C405.64 457.622 401.549 455.405 398.689 451.943C395.828 448.482 394.422 444.046 394.764 439.569C395.106 435.091 397.171 430.921 400.525 427.935C403.878 424.948 408.259 423.379 412.746 423.555C417.233 423.732 421.477 425.642 424.585 428.883C427.693 432.124 429.423 436.443 429.412 440.934Z" fill="#455A64"/>
<path d="M429.413 440.934C429.417 441.789 429.351 442.643 429.217 443.488L411.928 440.934V423.449C414.225 423.447 416.499 423.898 418.621 424.776C420.744 425.654 422.672 426.942 424.296 428.566C425.92 430.19 427.208 432.118 428.086 434.241C428.964 436.363 429.415 438.637 429.413 440.934Z" fill="url(#paint32_linear_379_5971)"/>
<path d="M423.722 443.753C425.252 437.252 421.222 430.742 414.721 429.213C408.22 427.683 401.71 431.713 400.181 438.214C398.651 444.715 402.681 451.225 409.182 452.754C415.683 454.284 422.192 450.254 423.722 443.753Z" fill="white"/>
<path d="M416.96 438.245H406.896V439.672H416.96V438.245Z" fill="#263238"/>
<path d="M419.454 442.196H404.402V443.623H419.454V442.196Z" fill="#A6A6A6"/>
<path d="M478.652 440.934C478.65 445.174 477.105 449.269 474.307 452.454C471.508 455.64 467.647 457.699 463.442 458.247C459.237 458.796 454.977 457.796 451.455 455.435C447.933 453.074 445.39 449.512 444.3 445.415C443.21 441.317 443.648 436.963 445.531 433.164C447.415 429.365 450.616 426.381 454.537 424.768C458.459 423.155 462.833 423.023 466.844 424.397C470.856 425.772 474.23 428.558 476.339 432.237C477.856 434.884 478.653 437.883 478.652 440.934Z" fill="#455A64"/>
<path d="M478.652 440.934C478.663 444.477 477.598 447.94 475.597 450.864C473.596 453.788 470.753 456.035 467.447 457.307L461.183 440.994V423.449C463.478 423.449 465.751 423.902 467.871 424.78C469.992 425.659 471.918 426.947 473.541 428.571C475.163 430.195 476.45 432.123 477.327 434.244C478.204 436.365 478.654 438.639 478.652 440.934Z" fill="url(#paint33_linear_379_5971)"/>
<path d="M473.26 440.934C473.245 443.307 472.527 445.623 471.198 447.59C469.869 449.556 467.987 451.084 465.789 451.982C463.592 452.881 461.179 453.108 458.852 452.636C456.526 452.164 454.392 451.013 452.719 449.33C451.046 447.646 449.909 445.505 449.451 443.176C448.994 440.847 449.236 438.434 450.148 436.243C451.059 434.051 452.6 432.179 454.574 430.862C456.549 429.545 458.869 428.842 461.243 428.842C462.827 428.842 464.396 429.155 465.859 429.764C467.322 430.372 468.65 431.264 469.767 432.388C470.883 433.512 471.767 434.845 472.367 436.312C472.966 437.779 473.27 439.35 473.26 440.934Z" fill="white"/>
<path d="M466.215 438.245H456.15V439.672H466.215V438.245Z" fill="#263238"/>
<path d="M468.708 442.196H453.657V443.623H468.708V442.196Z" fill="#A6A6A6"/>
<path d="M527.637 440.934C527.634 445.174 526.09 449.269 523.291 452.454C520.493 455.64 516.631 457.699 512.426 458.247C508.222 458.796 503.961 457.796 500.439 455.435C496.917 453.074 494.374 449.512 493.284 445.415C492.194 441.317 492.632 436.963 494.515 433.164C496.399 429.365 499.6 426.381 503.522 424.768C507.443 423.155 511.817 423.023 515.829 424.397C519.84 425.772 523.215 428.558 525.323 432.237C526.841 434.884 527.639 437.883 527.637 440.934Z" fill="#455A64"/>
<path d="M527.637 440.934C527.648 444.279 526.7 447.557 524.905 450.379C523.11 453.202 520.543 455.45 517.508 456.857C514.474 458.264 511.1 458.772 507.785 458.319C504.471 457.866 501.357 456.473 498.811 454.303L510.152 441.009V423.449C512.449 423.447 514.723 423.898 516.845 424.776C518.968 425.654 520.896 426.942 522.52 428.566C524.144 430.19 525.432 432.118 526.31 434.241C527.188 436.363 527.639 438.637 527.637 440.934Z" fill="url(#paint34_linear_379_5971)"/>
<path d="M522.046 442.997C523.201 436.419 518.805 430.151 512.227 428.995C505.65 427.84 499.381 432.236 498.226 438.814C497.071 445.392 501.467 451.66 508.044 452.815C514.622 453.97 520.891 449.574 522.046 442.997Z" fill="white"/>
<path d="M515.184 438.245H505.12V439.672H515.184V438.245Z" fill="#263238"/>
<path d="M517.678 442.196H502.626V443.623H517.678V442.196Z" fill="#A6A6A6"/>
<path d="M556.132 28.7357H107.162V41.1582H556.132V28.7357Z" fill="#A6A6A6"/>
<path d="M117.031 34.9545C117.031 35.5486 116.855 36.1295 116.524 36.6235C116.194 37.1176 115.725 37.5026 115.176 37.73C114.627 37.9574 114.023 38.0169 113.44 37.901C112.858 37.7851 112.322 37.4989 111.902 37.0788C111.482 36.6586 111.196 36.1233 111.08 35.5406C110.964 34.9578 111.024 34.3537 111.251 33.8048C111.478 33.2558 111.863 32.7866 112.357 32.4565C112.851 32.1264 113.432 31.9502 114.026 31.9502C114.817 31.9693 115.57 32.2919 116.13 32.8512C116.689 33.4106 117.012 34.1637 117.031 34.9545Z" fill="#C7C7C7"/>
<path d="M129.603 34.9545C129.603 35.5486 129.427 36.1295 129.097 36.6235C128.767 37.1176 128.298 37.5026 127.749 37.73C127.2 37.9574 126.596 38.0169 126.013 37.901C125.43 37.7851 124.895 37.4989 124.475 37.0788C124.054 36.6586 123.768 36.1233 123.652 35.5406C123.537 34.9578 123.596 34.3537 123.823 33.8048C124.051 33.2558 124.436 32.7866 124.93 32.4565C125.424 32.1264 126.005 31.9502 126.599 31.9502C127.39 31.9693 128.143 32.2919 128.702 32.8512C129.262 33.4106 129.584 34.1637 129.603 34.9545Z" fill="white"/>
<path d="M142.176 34.9545C142.191 35.5665 142.023 36.1691 141.694 36.6852C141.365 37.2014 140.889 37.6078 140.328 37.8524C139.767 38.097 139.146 38.1688 138.543 38.0586C137.941 37.9484 137.385 37.6612 136.947 37.2337C136.509 36.8062 136.208 36.2578 136.083 35.6585C135.958 35.0592 136.015 34.4362 136.245 33.8691C136.476 33.3021 136.871 32.8167 137.378 32.4749C137.886 32.133 138.485 31.9504 139.097 31.9502C139.901 31.95 140.673 32.2641 141.248 32.8254C141.823 33.3868 142.157 34.1509 142.176 34.9545Z" fill="url(#paint35_linear_379_5971)"/>
<path d="M66.4089 492.156C66.8746 480.304 66.7091 468.436 65.9132 456.601C64.1607 432.192 60.4384 407.963 54.7825 384.154C51.6731 370.755 47.8427 357.581 43.862 344.407C43.7419 344.017 43.111 344.122 43.2161 344.543C55.5335 390.943 65.6579 438.846 64.9519 487.094C64.7566 500.613 63.1944 513.847 61.9476 527.261C61.9476 527.622 62.5034 527.772 62.5785 527.396C64.8907 515.785 66.1725 503.993 66.4089 492.156Z" fill="url(#paint36_linear_379_5971)"/>
<path d="M43.2311 344.542C43.2311 344.542 24.5597 391.935 28.7356 403.125C32.9115 414.316 41.5337 416.645 41.5337 416.645C41.5337 416.645 30.1176 432.958 38.0938 448.189C46.0701 463.421 63.8102 462.775 64.9969 480.109C64.9819 480.109 65.9733 407.587 43.2311 344.542Z" fill="url(#paint37_linear_379_5971)"/>
<path d="M62.9541 450.172C62.9839 450.09 62.9839 449.999 62.9541 449.917C60.5272 417.563 54.4809 385.583 44.9286 354.577C44.9286 354.487 44.7483 354.577 44.7783 354.577C48.4736 368.446 51.7382 382.386 54.5722 396.396C52.067 394.018 49.0038 392.308 45.6646 391.424C45.6646 391.424 45.5745 391.424 45.6646 391.529C49.1757 392.813 52.328 394.92 54.8576 397.673C55.4084 400.417 55.9391 403.166 56.4499 405.919C52.274 401.263 46.4908 398.935 40.6926 396.741C40.6926 396.741 40.5724 396.832 40.6926 396.877C46.7011 399.325 52.7096 402.495 56.8254 407.692C58.2474 415.553 59.4942 423.444 60.5657 431.365C57.4991 428.178 53.5587 425.967 49.2397 425.011C49.1195 425.011 49.0444 425.162 49.2397 425.207C53.6313 426.465 57.5582 428.982 60.5356 432.447C60.9162 435.221 61.2667 438.01 61.5871 440.814C59.239 438.853 56.5917 437.281 53.746 436.157C53.6709 436.157 53.6259 436.232 53.746 436.262C56.6326 437.52 59.2763 439.274 61.5571 441.445C61.5571 441.445 61.6322 441.445 61.6622 441.445C61.9627 444.088 62.2781 446.747 62.5485 449.406C58.342 444.326 52.8857 440.427 46.7161 438.095C46.5959 438.095 46.5208 438.245 46.7161 438.29C52.8156 440.972 58.1718 445.096 62.3232 450.307C62.3666 450.367 62.4273 450.412 62.4972 450.436C62.567 450.461 62.6426 450.463 62.7137 450.442C63.1243 454.518 63.4798 458.604 63.7802 462.7C63.7802 462.7 63.8854 462.7 63.8704 462.7C63.585 458.539 63.2845 454.303 62.9541 450.172Z" fill="url(#paint38_linear_379_5971)"/>
<path d="M47.948 386.707C44.5675 384.603 40.7047 383.398 36.7271 383.207C36.637 383.207 36.622 383.342 36.7271 383.342C40.5716 384.059 44.3042 385.281 47.8279 386.978C47.8621 386.986 47.8983 386.982 47.9301 386.967C47.9618 386.951 47.9871 386.925 48.0014 386.893C48.0158 386.861 48.0183 386.824 48.0085 386.79C47.9988 386.756 47.9773 386.727 47.948 386.707Z" fill="#263238"/>
<path d="M50.216 436.923C47.5942 435.435 44.7146 434.457 41.729 434.039C41.6239 434.039 41.6239 434.189 41.729 434.204C44.6264 434.786 47.4278 435.772 50.0508 437.134C50.0787 437.155 50.1141 437.165 50.1493 437.161C50.1845 437.157 50.2166 437.139 50.2386 437.111C50.2605 437.083 50.2704 437.048 50.2662 437.012C50.2619 436.977 50.2439 436.945 50.216 436.923Z" fill="#263238"/>
<path d="M115.483 403.846C107.591 409.312 100.344 415.657 93.8829 422.758C87.214 430.257 82.0664 438.981 78.7264 448.445C71.6253 468.168 67.8092 488.922 67.4304 509.882C67.1983 521.487 68.3123 533.081 70.7501 544.43C70.7736 544.508 70.8251 544.575 70.8946 544.617C70.9642 544.66 71.0469 544.675 71.1269 544.66C71.207 544.645 71.2787 544.601 71.3283 544.536C71.378 544.472 71.4021 544.391 71.396 544.31C68.3722 524.285 68.4989 503.911 71.7716 483.925C74.9861 464.322 80.0182 442.992 92.4859 427.069C99.2605 418.387 107.732 411.567 116.099 404.537C116.505 404.132 115.934 403.531 115.483 403.846Z" fill="url(#paint39_linear_379_5971)"/>
<path d="M70.1792 495.792C74.6735 488.522 79.9581 481.771 85.9365 475.663C95.2647 466.32 103.136 459.68 104.353 453.507C105.569 447.333 94.9943 442.782 94.9943 442.782C94.9943 442.782 107.928 445.11 111.518 439.672C115.108 434.234 116.76 402.84 116.76 402.84C116.76 402.84 93.2518 419.619 82.2112 443.157C71.1706 466.695 70.1792 495.792 70.1792 495.792Z" fill="url(#paint40_linear_379_5971)"/>
<path d="M108.303 432.312C106.757 432.084 105.19 432.029 103.632 432.146C103.588 432.146 103.546 432.164 103.515 432.195C103.484 432.226 103.466 432.268 103.466 432.312C103.466 432.356 103.484 432.398 103.515 432.429C103.546 432.46 103.588 432.477 103.632 432.477C105.134 432.477 106.726 432.402 108.273 432.477C108.408 432.492 108.423 432.312 108.303 432.312Z" fill="#263238"/>
<path d="M91.3743 462.79C88.8911 462.859 86.4398 463.368 84.134 464.292C84.134 464.292 84.134 464.397 84.134 464.382C86.5224 463.826 88.9559 463.586 91.3593 463.196C91.5996 463.105 91.5846 462.79 91.3743 462.79Z" fill="#263238"/>
<path d="M86.3122 452.26C85.2792 452.245 84.2474 452.336 83.2329 452.53C83.2133 452.538 83.1966 452.552 83.1848 452.569C83.173 452.586 83.1667 452.607 83.1667 452.628C83.1667 452.649 83.173 452.67 83.1848 452.687C83.1966 452.704 83.2133 452.718 83.2329 452.726C84.2668 452.774 85.3029 452.723 86.3272 452.575C86.4925 452.545 86.4925 452.26 86.3122 452.26Z" fill="#263238"/>
<path d="M1.2468 437.194C8.8967 439.789 16.2286 443.24 23.1027 447.483C30.2311 452.035 36.413 457.921 41.3085 464.818C51.6082 479.157 59.4933 495.085 64.6515 511.97C67.5315 521.309 69.311 530.953 69.954 540.705C69.9394 540.768 69.9039 540.824 69.8535 540.864C69.803 540.904 69.7405 540.926 69.6761 540.926C69.6118 540.926 69.5493 540.904 69.4988 540.864C69.4484 540.824 69.4129 540.768 69.3982 540.705C67.2378 523.777 62.4325 507.293 55.1581 491.856C48.023 476.835 39.0253 460.672 25.2057 450.653C17.6951 445.2 9.28318 441.64 0.886293 437.855C0.480719 437.659 0.796165 437.028 1.2468 437.194Z" fill="url(#paint41_linear_379_5971)"/>
<path d="M59.1687 501.124C53.8389 496.279 47.9902 492.037 41.729 488.476C32.0103 483.084 24.1091 479.463 21.7057 474.807C19.3023 470.15 26.7979 463.962 26.7979 463.962C26.7979 463.962 16.8689 468.828 12.753 465.253C8.63722 461.678 0 436.713 0 436.713C0 436.713 22.9375 444.809 37.2227 461.318C51.5079 477.826 59.1687 501.124 59.1687 501.124Z" fill="url(#paint42_linear_379_5971)"/>
<path d="M20.1585 451.915C19.1535 451.837 18.1427 451.898 17.1542 452.095C17.034 452.095 17.0641 452.29 17.1542 452.275C18.1606 452.17 19.1671 452.275 20.1585 452.17C20.1788 452.177 20.2006 452.179 20.222 452.176C20.2433 452.173 20.2636 452.165 20.2812 452.152C20.2988 452.14 20.3131 452.123 20.323 452.104C20.3329 452.085 20.3381 452.064 20.3381 452.042C20.3381 452.021 20.3329 451.999 20.323 451.98C20.3131 451.961 20.2988 451.944 20.2812 451.932C20.2636 451.919 20.2433 451.911 20.222 451.908C20.2006 451.905 20.1788 451.907 20.1585 451.915Z" fill="#263238"/>
<path d="M88.7155 572.25H36.9973L44.3728 518.233L46.2504 504.384H79.4624L81.3401 518.233L88.7155 572.25Z" fill="#A3B2CF"/>
<path d="M81.3401 518.233H44.3728L46.2505 504.384H79.4625L81.3401 518.233Z" fill="#7286AB"/>
<path d="M84.1941 499.577H41.5037V511.309H84.1941V499.577Z" fill="#8B9BBA"/>
<path d="M474.431 620.753C477.436 621.73 563.462 620.603 566.707 618.485C567.954 617.704 568.51 605.161 568.765 589.945V589.494C568.765 586.37 568.87 583.14 568.87 579.881C568.87 579.43 568.87 578.979 568.87 578.544L564.724 533.916L507.178 534.486L512.856 578.694L512.931 580.451L513.276 589.599V590.531C513.276 590.531 480.545 605.687 477.225 608.406C473.906 611.125 471.412 619.792 474.431 620.753Z" fill="#EB9481"/>
<path d="M474.431 620.753C477.436 621.73 563.462 620.603 566.707 618.485C567.954 617.704 568.509 605.161 568.765 589.945V589.494C568.765 586.37 568.87 583.14 568.87 579.881C568.87 579.43 568.87 578.979 568.87 578.544L512.841 578.694L512.916 580.451L513.261 589.599V590.531C513.261 590.531 480.53 605.687 477.21 608.406C473.891 611.125 471.412 619.792 474.431 620.753Z" fill="#EBEBEB"/>
<path d="M474.416 620.753C475.919 621.249 499.337 621.189 522.184 620.753C526.781 620.663 531.347 620.558 535.703 620.438C552.001 619.987 565.46 619.311 566.707 618.5C567.954 617.689 568.51 605.522 568.765 590.636C568.765 590.426 568.765 590.215 568.765 590.005V589.494L513.336 589.599V590.546C513.336 590.546 480.59 605.687 477.285 608.406C473.981 611.125 471.412 619.792 474.416 620.753Z" fill="url(#paint43_linear_379_5971)"/>
<path d="M475.363 617.404C489.858 616.863 548.366 616.037 562.726 616.593C562.846 616.593 562.846 616.683 562.726 616.683C548.381 617.539 489.858 617.899 475.363 617.644C475.062 617.644 475.047 617.419 475.363 617.404Z" fill="#263238"/>
<path d="M507.103 589.84C512.796 588.713 519.781 589.494 524.197 593.505C524.362 593.655 524.197 593.895 523.957 593.835C518.48 592.151 512.841 591.054 507.133 590.561C507.037 590.565 506.944 590.531 506.873 590.466C506.803 590.401 506.761 590.311 506.757 590.215C506.753 590.12 506.787 590.026 506.852 589.956C506.917 589.885 507.007 589.844 507.103 589.84Z" fill="#263238"/>
<path d="M503.017 592.378C508.71 591.237 515.695 592.033 520.111 596.043C520.276 596.194 520.111 596.434 519.871 596.374C514.394 594.69 508.755 593.592 503.047 593.099C502.999 593.101 502.952 593.094 502.908 593.078C502.863 593.061 502.822 593.036 502.787 593.004C502.753 592.972 502.724 592.934 502.704 592.891C502.685 592.848 502.673 592.801 502.671 592.754C502.669 592.706 502.677 592.659 502.693 592.615C502.709 592.57 502.734 592.529 502.766 592.494C502.798 592.46 502.837 592.431 502.88 592.411C502.923 592.392 502.969 592.38 503.017 592.378Z" fill="#263238"/>
<path d="M498.931 594.917C504.624 593.775 511.609 594.571 516.025 598.567C516.19 598.732 516.025 598.973 515.785 598.912C510.31 597.221 504.67 596.123 498.961 595.638C498.865 595.642 498.772 595.608 498.702 595.543C498.631 595.478 498.59 595.388 498.586 595.292C498.582 595.197 498.616 595.103 498.68 595.033C498.745 594.963 498.835 594.921 498.931 594.917Z" fill="#263238"/>
<path d="M522.184 620.738C526.78 620.648 531.347 620.543 535.703 620.423C552.001 619.972 565.46 619.296 566.707 618.485C567.954 617.674 568.509 605.507 568.765 590.621C568.765 590.41 568.765 590.2 568.765 589.99V589.494C561.119 594.827 534.426 612.642 522.184 620.738Z" fill="#263238"/>
<path d="M509.506 589.795H571.439C571.439 589.795 558.971 445.125 559.422 442.586C560.053 439.342 563.703 424.696 568.57 405.574C570.072 399.565 571.739 393.166 573.452 386.512C578.078 368.486 583.155 348.839 587.602 331.714C594.256 306.073 599.453 286.155 599.453 286.155H546.984C546.984 286.155 540.87 305.547 533.15 330.783C520.592 371.791 503.798 428.241 502.146 441.94C499.457 464.142 509.506 589.795 509.506 589.795Z" fill="#02C9A8"/>
<path d="M512.24 579.235C521.703 579.039 518.984 578.964 528.448 578.859C533.074 578.859 563.507 578.559 567.834 579.28C567.857 579.28 567.88 579.289 567.897 579.306C567.914 579.323 567.924 579.346 567.924 579.37C567.924 579.394 567.914 579.417 567.897 579.434C567.88 579.45 567.857 579.46 567.834 579.46C563.507 580.181 533.074 579.911 528.448 579.865C518.984 579.775 521.703 579.7 512.24 579.505C512.222 579.505 512.205 579.501 512.188 579.495C512.172 579.488 512.157 579.478 512.144 579.465C512.132 579.453 512.122 579.438 512.115 579.421C512.108 579.405 512.105 579.388 512.105 579.37C512.105 579.352 512.108 579.334 512.115 579.318C512.122 579.302 512.132 579.287 512.144 579.274C512.157 579.262 512.172 579.252 512.188 579.245C512.205 579.238 512.222 579.235 512.24 579.235Z" fill="#263238"/>
<path d="M547.795 433.754C549.838 424.741 552.872 416.029 555.516 407.241C560.874 389.376 566.271 371.526 571.709 353.691C574.423 344.768 577.147 335.85 579.881 326.938C581.262 322.431 582.644 317.925 584.056 313.419C585.468 308.912 587.061 304.661 588.247 300.215C588.758 298.412 589.028 299.404 588.383 301.717C587.076 306.328 585.784 310.955 584.447 315.567C581.773 324.699 579.089 333.822 576.396 342.935C571.018 361.081 565.6 379.217 560.143 397.342L551.941 424.591C550.555 428.914 549.437 433.319 548.591 437.78C547.863 442.444 547.682 447.178 548.05 451.884C548.636 461.363 549.733 470.826 550.604 480.29C551.475 489.753 552.362 499.231 553.248 508.71C554.99 527.557 556.718 546.413 558.43 565.28C558.64 567.668 558.851 570.057 559.046 572.46C559.046 573.256 557.889 573.196 557.799 572.46C555.771 553.804 554.194 535.102 552.452 516.431L547.224 460.687C546.789 456.015 546.293 451.344 546.293 446.657C546.31 442.313 546.814 437.985 547.795 433.754Z" fill="#099981"/>
<path d="M552.948 286.17C556.583 314.365 563.538 367.285 568.6 405.589C580.436 359.113 599.483 286.17 599.483 286.17H552.948Z" fill="#099981"/>
<path d="M540.044 621.58C543.048 622.571 629.075 621.76 632.335 619.657C633.582 618.876 634.197 606.333 634.498 591.116V590.636C634.573 587.511 634.633 584.297 634.648 581.022C634.648 580.571 634.648 580.121 634.648 579.685C634.843 557.784 633.266 535.057 633.266 535.057L577.042 535.433L578.619 579.64V581.383L578.934 590.531V591.477C578.934 591.477 546.143 606.498 542.808 609.202C539.473 611.906 537.04 620.603 540.044 621.58Z" fill="#EB9481"/>
<path d="M540.044 621.58C543.048 622.571 629.075 621.76 632.335 619.657C633.582 618.876 634.197 606.333 634.498 591.116V590.636C634.573 587.511 634.633 584.297 634.648 581.022C634.648 580.572 634.648 580.121 634.648 579.685H578.619V581.428L578.934 590.576V591.522C578.934 591.522 546.143 606.543 542.808 609.247C539.473 611.951 537.04 620.603 540.044 621.58Z" fill="#EBEBEB"/>
<path d="M540.044 621.58C543.048 622.571 629.075 621.76 632.335 619.657C633.582 618.876 634.197 606.333 634.498 591.116V590.636L579.009 590.531V591.477C579.009 591.477 546.218 606.498 542.883 609.202C539.549 611.906 537.04 620.603 540.044 621.58Z" fill="url(#paint44_linear_379_5971)"/>
<path d="M540.991 618.23C555.486 617.749 613.994 617.133 628.369 617.749C628.49 617.749 628.49 617.839 628.369 617.839C614.009 618.635 555.501 618.786 540.991 618.47C540.69 618.47 540.69 618.245 540.991 618.23Z" fill="#263238"/>
<path d="M572.836 590.801C578.529 589.674 585.513 590.486 589.915 594.511C590.08 594.661 589.915 594.902 589.674 594.857C584.209 593.14 578.573 592.022 572.866 591.522C572.77 591.526 572.677 591.492 572.606 591.427C572.536 591.362 572.494 591.272 572.49 591.177C572.486 591.081 572.52 590.988 572.585 590.917C572.65 590.847 572.74 590.805 572.836 590.801Z" fill="#263238"/>
<path d="M568.735 593.31C574.428 592.198 581.413 593.009 585.814 597.035C585.994 597.185 585.814 597.425 585.574 597.365C580.106 595.651 574.471 594.523 568.765 594.001C568.689 593.982 568.622 593.939 568.573 593.879C568.523 593.819 568.495 593.744 568.492 593.666C568.488 593.589 568.51 593.512 568.554 593.447C568.598 593.383 568.661 593.335 568.735 593.31Z" fill="#263238"/>
<path d="M564.634 595.833C570.342 594.722 577.327 595.533 581.728 599.558C581.893 599.709 581.728 599.949 581.488 599.889C576.014 598.185 570.374 597.067 564.664 596.554C564.568 596.558 564.475 596.524 564.405 596.459C564.334 596.394 564.292 596.304 564.288 596.209C564.284 596.113 564.319 596.02 564.383 595.949C564.448 595.879 564.538 595.837 564.634 595.833Z" fill="#263238"/>
<path d="M548.681 286.17C548.681 286.17 549.898 311.285 555.636 331.234C556.102 332.886 556.598 334.508 557.138 336.056C562.406 338.184 567.47 340.789 572.265 343.837C572.265 343.837 572.881 364.04 573.482 386.587C574.157 411.778 574.848 439.882 574.713 445.846C574.172 468.137 577.492 590.771 577.492 590.771L639.425 591.011C639.425 591.011 628.234 454.078 628.309 445.906C628.429 432.777 625.305 374.735 622.901 332.405C621.399 306.328 620.213 286.23 620.213 286.23L548.681 286.17Z" fill="#02C9A8"/>
<path d="M579.61 579.685C589.074 579.535 586.355 579.445 595.818 579.4C600.46 579.4 630.878 579.235 635.204 579.971C635.294 579.971 635.294 580.151 635.204 580.166C630.878 580.857 600.445 580.466 595.818 580.406C586.355 580.271 589.074 580.211 579.61 579.971C579.58 579.961 579.554 579.942 579.535 579.916C579.517 579.89 579.507 579.86 579.507 579.828C579.507 579.796 579.517 579.766 579.535 579.74C579.554 579.714 579.58 579.695 579.61 579.685Z" fill="#263238"/>
<path d="M615.015 295.078C616.157 329.626 617.359 364.175 618.906 398.724C620.453 433.273 622.541 468.032 625.44 502.596C627.062 521.914 628.594 549.087 630.682 568.344C630.682 568.479 630.487 568.525 630.472 568.344C625.966 534.081 623.457 491.736 621.234 457.187C619.011 422.638 617.509 388.089 616.337 353.615C615.676 334.088 615.165 314.56 614.58 295.033C614.58 294.837 615 294.867 615.015 295.078Z" fill="#099981"/>
<path d="M554.57 334.493C560.724 337.073 566.644 340.179 572.265 343.776C572.313 343.8 572.349 343.842 572.366 343.893C572.383 343.944 572.379 343.999 572.355 344.047C572.331 344.095 572.289 344.131 572.238 344.148C572.188 344.165 572.132 344.161 572.084 344.137C566.076 341.238 560.067 338.444 554.209 335.214C554.125 335.16 554.065 335.077 554.038 334.981C554.012 334.884 554.022 334.782 554.067 334.693C554.112 334.603 554.188 334.534 554.28 334.497C554.373 334.46 554.476 334.459 554.57 334.493Z" fill="#263238"/>
<path d="M554.224 313.193C554.63 315.386 555.156 317.564 555.636 319.757C556.117 321.951 556.417 323.903 556.958 325.931C557.404 327.896 558.399 329.693 559.827 331.113C560.638 331.865 561.525 332.526 562.381 333.201C562.846 333.577 563.342 333.937 563.883 334.313C563.883 334.013 563.778 333.727 563.718 333.427C563.568 332.586 563.432 331.759 563.297 330.918C562.982 329.056 562.681 327.208 562.396 325.345C561.84 321.695 561.329 318 560.563 314.395C560.563 314.245 560.759 314.185 560.789 314.395C561.705 317.97 562.711 321.515 563.507 325.135C563.883 326.908 565.28 335.65 565.34 336.281C565.4 336.912 565.46 337.558 565.475 338.204C565.565 338.851 565.565 339.509 565.475 340.156C565.475 340.322 565.25 340.292 565.175 340.156C564.908 339.547 564.721 338.906 564.619 338.249C564.454 337.618 564.319 336.987 564.198 336.356C564.198 336.131 564.198 335.89 564.093 335.65C563.237 335.139 562.426 334.448 561.63 333.862C560.834 333.277 559.872 332.616 559.046 331.925C557.53 330.64 556.436 328.928 555.907 327.013C555.378 324.95 555.036 322.843 554.885 320.719C554.6 318.24 554.405 315.747 554.044 313.208C553.954 313.103 554.194 313.103 554.224 313.193Z" fill="#263238"/>
<path d="M582.149 220.467C573.782 234.827 537.731 266.087 524.873 267.033C515.59 267.694 484.435 242.263 475.633 233.415C467.161 224.883 495.686 201.3 501.004 205.956C508.515 212.551 525.038 231.598 528.643 232.169C531.167 232.559 546.578 225.063 570.477 211.004C583.696 203.177 587.136 211.89 582.149 220.467Z" fill="#EB9481"/>
<path d="M457.427 215.134C461.168 222.179 474.461 233.581 478.728 235.098C482.994 236.615 503.122 214.654 502.341 210.072C501.56 205.491 487.109 182.764 479.629 179.549C472.148 176.334 453.537 207.834 457.427 215.134Z" fill="#EB9481"/>
<path d="M500.553 205.776C499.864 199.365 500.112 192.888 501.289 186.549C502.972 179.038 506.291 168.103 502.296 167.021C494.094 164.873 485.772 192.182 485.772 192.182C485.772 192.182 484.045 204.815 491.991 207.669C493.454 208.173 495.028 208.263 496.539 207.929C498.05 207.595 499.439 206.85 500.553 205.776Z" fill="#EB9481"/>
<path d="M490.129 186.804C487.875 190.379 485.066 188.306 485.066 188.306C485.066 188.306 491.075 193.864 489.167 198.115C487.26 202.366 481.582 198.761 481.161 198.521C481.476 198.821 486.899 204.064 484.526 208.134C482.152 212.205 476.895 207.924 476.564 207.639C476.775 207.999 479.479 213.001 476.97 215.69C472.674 220.302 465.389 207.744 460.447 206.677C460.447 206.677 457.593 214.924 457.442 215.149C457.442 215.149 450.262 203.343 452.14 196.688C452.396 195.705 452.985 194.841 453.806 194.244C454.628 193.647 455.632 193.353 456.646 193.414C456.646 193.414 453.912 189.854 455.685 186.579C456.586 184.912 460.086 184.867 460.086 184.867C459.509 184.032 459.175 183.055 459.119 182.042C459.063 181.029 459.289 180.021 459.771 179.128C461.153 176.875 464.442 177.191 464.442 177.191C464.442 177.191 448.294 164.272 451.178 160.382C456.15 153.697 485.998 182.523 489.633 181.998C491.36 181.712 491.12 185.257 490.129 186.804Z" fill="#EB9481"/>
<path d="M464.893 177.146C464.893 177.146 464.893 177.01 464.893 177.025C472.706 178.664 479.836 182.641 485.337 188.427C485.502 188.622 485.682 189.779 485.472 189.583C480.35 184.641 472.479 180.09 464.893 177.146Z" fill="#263238"/>
<path d="M459.936 184.761C459.846 184.761 459.936 184.596 459.936 184.626C468.524 186.521 476.146 191.436 481.416 198.476C481.596 198.716 481.506 199.122 481.281 198.851C477.526 194.24 466.831 187.39 459.936 184.761Z" fill="#263238"/>
<path d="M476.745 208.3C471.517 201.465 464.638 197.004 456.902 193.444C456.797 193.444 456.902 193.263 456.902 193.278C461.168 193.984 465.914 196.778 469.324 199.287C472.587 201.528 475.208 204.583 476.925 208.15C477.06 208.255 476.865 208.45 476.745 208.3Z" fill="#263238"/>
<path d="M485.202 188.321C485.412 188.547 484.466 188.607 484.661 188.847C486.764 191.386 490.324 196.117 488.642 198.311C487.29 200.053 484 199.452 482.828 198.731L479.824 196.899L481.957 199.632C482.913 200.847 483.668 202.206 484.195 203.658C484.468 204.318 484.601 205.027 484.586 205.741C484.57 206.454 484.407 207.157 484.105 207.804C483.808 208.393 483.318 208.863 482.717 209.136C482.116 209.409 481.44 209.469 480.8 209.306C479.362 208.929 478.048 208.183 476.985 207.143L473.981 204.394L475.949 207.969C476.5 208.967 476.919 210.033 477.195 211.139C477.504 212.173 477.504 213.274 477.195 214.308C477.03 214.764 476.742 215.165 476.363 215.467C475.984 215.77 475.528 215.961 475.047 216.021C473.947 215.99 472.879 215.646 471.968 215.029C469.99 213.714 468.112 212.252 466.35 210.658C465.434 209.877 464.517 209.156 463.556 208.36C462.637 207.569 461.562 206.981 460.402 206.632C461.523 207.09 462.544 207.764 463.406 208.615C464.292 209.426 465.148 210.268 466.005 211.109C467.691 212.863 469.536 214.458 471.517 215.87C472.577 216.648 473.84 217.102 475.152 217.177C475.874 217.135 476.568 216.884 477.149 216.455C477.731 216.026 478.175 215.436 478.427 214.759C478.863 213.494 478.905 212.127 478.547 210.838C478.264 209.604 477.82 208.412 477.225 207.293L476.144 208.119C477.392 209.369 478.946 210.271 480.65 210.733C481.599 210.967 482.6 210.855 483.474 210.418C484.33 209.98 485.028 209.287 485.472 208.435C485.86 207.618 486.07 206.729 486.088 205.825C486.106 204.921 485.932 204.024 485.577 203.192C484.993 201.601 484.139 200.123 483.054 198.821L482.243 199.723C483.745 200.594 487.365 201.675 489.753 199.227C492.367 195.592 486.358 189.388 485.202 188.321Z" fill="#263238"/>
<path d="M501.71 206.227L478.202 248.647C478.202 248.647 513.366 269.376 524.768 268.174C536.169 266.973 569.245 240.175 582.194 222.6C590.065 211.905 584.522 202.847 569.155 210.868C553.368 219.1 531.227 230.396 529.649 230.711C528.072 231.027 501.71 206.227 501.71 206.227Z" fill="url(#paint45_linear_379_5971)"/>
<path d="M499.352 233.641C500.854 230.411 506.952 217.493 508.214 214.113C508.214 214.113 508.214 214.008 508.124 214.113C506.306 217.117 499.937 229.63 498.39 232.86C495.142 239.206 492.244 245.725 489.708 252.387C489.708 252.507 489.843 252.627 489.918 252.507C493.478 246.454 496.317 239.995 499.352 233.641Z" fill="#263238"/>
<path opacity="0.1" d="M582.149 222.675C571.634 236.915 547.915 257.224 533.255 265.065L578.228 207.984C586.34 207.248 588.187 214.473 582.149 222.675Z" fill="black"/>
<path d="M622.631 316.363C622.406 316.588 541.291 307.846 540.525 306.854C539.458 305.472 562.591 222.9 569.801 209.351C572.806 203.583 587.541 202.742 593.34 208.21C607.865 221.864 617.975 266.026 620.093 279.26C623.623 301.086 623.442 315.567 622.631 316.363Z" fill="white"/>
<path d="M571.379 206.888L551.49 321.049L536.169 313.103C536.169 313.103 561.57 229.089 563.207 223.261C564.844 217.433 568.299 209.066 571.379 206.888Z" fill="url(#paint46_linear_379_5971)"/>
<path d="M588.503 204.529C587.496 204.109 586.61 249.593 586.505 257.104C586.4 264.614 585.649 323.708 585.649 323.708L625.44 318.541C625.44 318.541 622.571 265.26 608.331 233.13C600.355 214.939 596.013 207.639 588.503 204.529Z" fill="url(#paint47_linear_379_5971)"/>
<path d="M569.246 210.823C568.705 214.924 567.743 224.448 574.233 224.342C576.869 224.049 579.366 223.007 581.428 221.338C583.562 219.828 585.526 218.09 587.286 216.156C589.375 214.084 591.289 211.843 593.009 209.456C593.009 209.351 593.235 209.456 593.159 209.577C591.447 211.98 590.005 214.519 588.067 216.757C586.221 218.949 584.089 220.884 581.728 222.51C579.532 224.211 576.871 225.206 574.097 225.364C572.869 225.36 571.681 224.922 570.744 224.128C569.807 223.334 569.181 222.234 568.975 221.023C568.306 217.645 568.398 214.161 569.246 210.823Z" fill="#263238"/>
<path d="M588.833 221.999C591.026 232.259 608.03 310.865 614.039 311.601C631.614 313.929 650.495 312.247 650.6 298.082C650.766 275.85 620.212 232.874 600.775 212.851C587.947 199.753 586.67 211.875 588.833 221.999Z" fill="url(#paint48_linear_379_5971)"/>
<path d="M593.955 242.774C592.814 238.447 591.627 234.121 590.365 229.825C590.365 229.705 590.17 229.825 590.185 229.825C591.357 235.608 592.664 241.362 594.031 247.1C592.906 244.66 591.937 242.152 591.131 239.589C591.131 239.557 591.119 239.527 591.096 239.504C591.074 239.482 591.043 239.469 591.011 239.469C590.979 239.469 590.949 239.482 590.926 239.504C590.904 239.527 590.891 239.557 590.891 239.589C591.655 242.625 592.812 245.549 594.331 248.286L595.503 253.093C597.395 260.829 599.213 268.595 601.316 276.286C602.503 280.597 603.629 284.938 604.861 289.249C604.861 289.384 605.116 289.324 605.086 289.249C601.797 273.702 598.011 258.185 593.955 242.774Z" fill="#263238"/>
<path d="M591.301 225.828L570.537 296.286L624.656 312.235L645.419 241.777L591.301 225.828Z" fill="#455A64"/>
<path d="M632.474 234.09L606.835 226.5L604.533 234.278L630.171 241.868L632.474 234.09Z" fill="#A6A6A6"/>
<path d="M626.687 232.349L623.517 231.417L624.584 227.827L616.908 225.559L615.841 229.134L612.687 228.203L614.625 221.684L628.655 225.83L626.687 232.349Z" fill="#A6A6A6"/>
<path d="M581.292 252.748C580.473 253.61 579.938 254.703 579.758 255.88C579.578 257.056 579.762 258.259 580.286 259.327C578.315 259.766 576.561 260.882 575.329 262.481C573.286 265.396 576.951 269.887 576.951 269.887C575 270.768 573.361 272.218 572.25 274.048C570.567 277.052 573.632 282.084 573.632 282.084C572.29 283.885 571.64 286.108 571.799 288.348C572.46 294.357 580.737 298.292 585.964 300.876C591.191 303.459 608.496 305.848 611.695 306.644L628.519 273.207C628.519 273.207 608.346 254.986 601.766 252.823C596.224 251.005 584.537 249.563 581.292 252.748Z" fill="#EB9481"/>
<path d="M626.131 271.044C632.139 275.55 650.24 292.809 646.184 301.822C642.128 310.835 627.798 310.144 607.835 305.863L626.131 271.044Z" fill="#EB9481"/>
<path d="M626.131 271.044C632.139 275.55 651.156 292.374 646.59 303.925C642.955 313.118 626.116 314.44 606.168 310.204L626.131 271.044Z" fill="url(#paint49_linear_379_5971)"/>
<path d="M616.397 310.414C622.406 295.543 630.938 280.837 632.245 278.164C632.252 278.151 632.261 278.139 632.272 278.13C632.284 278.121 632.297 278.114 632.31 278.11C632.324 278.106 632.339 278.104 632.354 278.106C632.368 278.107 632.382 278.112 632.395 278.119C632.408 278.125 632.419 278.135 632.428 278.146C632.438 278.157 632.444 278.17 632.449 278.184C632.453 278.198 632.454 278.213 632.453 278.227C632.451 278.242 632.447 278.256 632.44 278.269C631.013 280.822 623.067 298.713 616.608 310.549C616.532 310.685 616.337 310.564 616.397 310.414Z" fill="#263238"/>
<path d="M625.2 312.397C618.886 312.105 612.599 311.398 606.378 310.279C606.977 308.773 607.654 307.299 608.406 305.863C608.496 305.728 608.256 305.607 608.181 305.773C607.414 307.374 606.546 308.924 605.582 310.414C605.558 310.462 605.545 310.514 605.543 310.568C605.542 310.621 605.552 310.674 605.574 310.723C605.595 310.772 605.627 310.815 605.668 310.85C605.708 310.885 605.756 310.911 605.807 310.925C612.127 312.507 618.65 313.125 625.155 312.758C625.365 312.728 625.41 312.397 625.2 312.397Z" fill="#263238"/>
<path d="M626.927 271.374C629.039 272.884 631.046 274.535 632.936 276.316L634.348 277.728L634.949 278.104C635.805 278.644 636.646 279.215 637.442 279.831C638.983 281.046 640.443 282.361 641.813 283.767C641.903 283.857 641.813 284.007 641.648 283.917C640.199 282.575 638.647 281.35 637.006 280.252L636.36 279.831C637.142 280.687 637.863 281.543 638.629 282.445C640.558 284.833 642.334 287.342 643.946 289.955C644.021 290.075 643.826 290.181 643.751 290.06C640.747 285.449 629.346 273.777 626.582 271.75C624.854 270.488 625.861 270.548 626.927 271.374Z" fill="#263238"/>
<path d="M580.797 258.906C587.151 259.432 593.009 261.79 598.987 263.818C599.123 263.818 598.987 264.074 598.987 264.029C593.054 261.941 586.79 261.024 580.797 259.207C580.757 259.207 580.719 259.191 580.69 259.163C580.662 259.135 580.646 259.096 580.646 259.057C580.646 259.017 580.662 258.979 580.69 258.95C580.719 258.922 580.757 258.906 580.797 258.906Z" fill="#263238"/>
<path d="M577.282 269.541C578.715 269.801 580.109 270.246 581.428 270.863C582.855 271.434 584.282 272.02 585.694 272.636C588.528 273.867 591.327 275.169 594.091 276.541C594.211 276.541 594.091 276.812 594.016 276.752C591.192 275.535 588.353 274.348 585.484 273.252L581.157 271.629C579.764 271.213 578.42 270.649 577.147 269.947C577.109 269.919 577.081 269.879 577.067 269.834C577.053 269.789 577.053 269.74 577.068 269.695C577.083 269.651 577.112 269.612 577.15 269.584C577.189 269.556 577.235 269.541 577.282 269.541Z" fill="#263238"/>
<path d="M573.752 282.129C575.046 282.376 576.287 282.849 577.417 283.526L581.262 285.269C583.831 286.41 586.4 287.552 589.013 288.618C589.134 288.618 589.013 288.874 589.013 288.814C586.355 287.762 583.696 286.741 581.052 285.659L577.162 284.037C575.935 283.65 574.785 283.05 573.767 282.264C573.756 282.257 573.747 282.248 573.741 282.236C573.734 282.225 573.73 282.213 573.729 282.2C573.727 282.187 573.729 282.174 573.733 282.162C573.737 282.15 573.743 282.139 573.752 282.129Z" fill="#263238"/>
<path d="M574.248 219.971C578.859 220.737 587.166 212.641 589.885 206.813C589.542 203.665 589.04 200.537 588.383 197.439C587.902 194.435 587.436 191.085 587.241 187.991L568.164 194C569.522 197.792 570.41 201.737 570.808 205.746C570.853 206.171 570.853 206.599 570.808 207.023C570.808 207.023 570.808 207.158 570.808 207.248C570.477 209.607 569.786 219.16 574.248 219.971Z" fill="#EB9481"/>
<path d="M586.565 188.156C586.565 191.596 585.589 205.971 572.746 207.143C572.081 207.195 571.413 207.195 570.748 207.143C570.748 207.053 570.748 206.978 570.748 206.918C570.793 206.493 570.793 206.065 570.748 205.641C570.35 201.632 569.462 197.687 568.104 193.894L586.565 188.156Z" fill="#263238"/>
<path d="M590.846 168.403C592.438 175.433 587.331 195.021 582.119 199.077C574.608 204.965 562.907 204.725 558.085 195.802C553.413 187.15 560.518 161.749 566.271 158.129C574.758 152.811 588.503 158.024 590.846 168.403Z" fill="#EB9481"/>
<path d="M573.361 179.925C573.361 179.925 573.451 180.015 573.436 180.06C573.061 181.367 572.851 182.929 573.932 183.68C572.49 183.169 572.791 181.096 573.361 179.925Z" fill="#263238"/>
<path d="M574.894 178.843C577.057 179.219 576.14 183.53 574.128 183.169C572.115 182.809 573.076 178.528 574.894 178.843Z" fill="#263238"/>
<path d="M565.971 178.017C565.971 178.017 565.866 178.017 565.851 178.107C565.61 179.459 565.1 180.946 563.808 181.111C565.28 181.322 565.971 179.324 565.971 178.017Z" fill="#263238"/>
<path d="M565.054 176.41C562.952 175.794 561.855 180.06 563.808 180.631C565.76 181.201 566.827 176.89 565.054 176.41Z" fill="#263238"/>
<path d="M577.011 177.236C576.492 176.951 575.99 176.635 575.509 176.289C574.92 176.029 574.431 175.587 574.112 175.028C574.053 174.832 574.059 174.622 574.13 174.429C574.2 174.237 574.331 174.073 574.503 173.961C574.875 173.791 575.287 173.725 575.695 173.77C576.102 173.814 576.49 173.969 576.816 174.217C577.57 174.603 578.145 175.264 578.423 176.064C578.482 176.252 578.484 176.453 578.428 176.642C578.372 176.83 578.262 176.998 578.11 177.124C577.959 177.249 577.774 177.327 577.578 177.347C577.382 177.367 577.185 177.328 577.011 177.236Z" fill="#263238"/>
<path d="M563.853 173.856C564.455 173.863 565.057 173.833 565.655 173.766C566.284 173.848 566.923 173.721 567.473 173.405C567.619 173.261 567.716 173.074 567.748 172.872C567.781 172.669 567.747 172.461 567.653 172.279C567.408 171.951 567.08 171.694 566.702 171.536C566.324 171.377 565.911 171.323 565.505 171.377C564.664 171.361 563.846 171.655 563.207 172.204C563.089 172.342 563.01 172.51 562.98 172.69C562.95 172.869 562.969 173.054 563.035 173.223C563.102 173.393 563.213 173.541 563.357 173.653C563.501 173.764 563.672 173.834 563.853 173.856Z" fill="#263238"/>
<path d="M571.979 192.077C571.589 192.317 571.183 192.678 570.688 192.618C570.197 192.499 569.736 192.279 569.336 191.972C569.336 191.972 569.245 191.972 569.26 191.972C569.391 192.27 569.599 192.528 569.864 192.718C570.128 192.908 570.438 193.024 570.763 193.053C571.048 193.036 571.322 192.938 571.554 192.77C571.785 192.603 571.964 192.373 572.069 192.107C572.145 192.092 572.054 192.047 571.979 192.077Z" fill="#263238"/>
<path d="M571.454 187.796C571 188.249 570.458 188.604 569.861 188.839C569.264 189.074 568.625 189.184 567.984 189.163C567.427 189.149 566.875 189.053 566.347 188.877L566.031 188.787L565.761 188.667C565.692 188.641 565.635 188.593 565.597 188.53C565.558 188.468 565.542 188.394 565.55 188.321V188.186V188.066C565.746 187.03 566.181 185.497 566.181 185.497C565.761 185.603 563.658 186.053 563.808 185.497C564.921 180.894 566.496 176.415 568.51 172.129C568.51 171.993 568.795 172.129 568.75 172.219C567.744 176.485 566.001 180.525 564.935 184.791C565.678 184.62 566.441 184.555 567.203 184.596C567.353 184.596 566.317 187.6 566.271 188.021C567.093 188.285 567.959 188.38 568.818 188.303C569.677 188.226 570.512 187.977 571.274 187.57C571.469 187.585 571.559 187.706 571.454 187.796Z" fill="#263238"/>
<path d="M567.052 188.427C567.458 189.282 568.079 190.017 568.855 190.56C569.297 190.858 569.825 191 570.357 190.965C571.484 190.965 571.709 189.944 571.694 189.073C571.679 188.606 571.614 188.143 571.499 187.691C570.135 188.411 568.575 188.669 567.052 188.427Z" fill="#263238"/>
<path d="M568.855 190.62C569.297 190.918 569.825 191.06 570.357 191.025C571.484 191.025 571.709 190.004 571.694 189.133C571.122 189.019 570.529 189.105 570.012 189.375C569.496 189.646 569.087 190.085 568.855 190.62Z" fill="#FF98B9"/>
<path d="M584.312 178.257C583.095 174.367 585.484 167.953 583.606 166.24C579.52 162.38 570.793 169.335 564.935 169.244C559.076 169.154 557.424 165.414 558.596 160.833C559.767 156.251 563.733 153.247 570.147 152.466C575.732 151.98 581.311 153.463 585.919 156.657C585.919 156.657 584.552 154.313 585.108 153.652C585.664 152.991 588.383 155.245 589.209 156.206C589.812 157.046 590.26 157.987 590.531 158.985C591.383 158.793 592.258 158.727 593.129 158.79C594.393 158.912 595.574 159.476 596.464 160.382C596.554 160.727 594.481 160.938 593.024 160.968C593.024 160.968 595.638 164.633 595.503 167.697C595.368 170.762 590.2 185.242 589.044 185.377C587.556 185.422 584.793 179.834 584.312 178.257Z" fill="#263238"/>
<path d="M592.483 160.457C592.483 160.457 592.363 160.457 592.483 160.547C593.881 161.713 594.922 163.249 595.488 164.978C596.008 167.059 595.972 169.24 595.382 171.302C594.155 175.233 592.519 179.024 590.5 182.613C590.5 182.719 590.621 182.809 590.681 182.704C593.061 178.947 594.84 174.842 595.953 170.536C596.599 166.871 595.863 162.605 592.483 160.457Z" fill="#263238"/>
<path d="M583.861 164.693C582.142 164.435 580.389 164.501 578.694 164.888C577.113 165.394 575.6 166.09 574.187 166.961C570.996 168.798 567.353 169.703 563.673 169.575C563.673 169.575 563.673 169.575 563.673 169.65C567.058 170.013 570.475 169.37 573.497 167.802C574.996 166.944 576.546 166.176 578.138 165.504C580.011 165.027 581.948 164.855 583.876 164.993C583.896 164.992 583.915 164.988 583.933 164.979C583.951 164.971 583.967 164.959 583.98 164.944C583.993 164.93 584.004 164.912 584.01 164.894C584.017 164.875 584.02 164.855 584.019 164.836C584.018 164.816 584.013 164.797 584.005 164.779C583.996 164.761 583.984 164.745 583.97 164.732C583.955 164.718 583.938 164.708 583.919 164.702C583.901 164.695 583.881 164.692 583.861 164.693Z" fill="#263238"/>
<path d="M582.494 154.869C580.22 153.667 577.788 152.792 575.269 152.27C572.865 151.701 570.38 151.548 567.924 151.82C565.803 152.001 563.785 152.813 562.131 154.152C560.476 155.49 559.26 157.294 558.641 159.33C558.044 161.538 558.29 163.889 559.332 165.925C559.349 165.946 559.373 165.961 559.4 165.967C559.427 165.973 559.455 165.97 559.479 165.957C559.504 165.945 559.524 165.925 559.535 165.9C559.546 165.875 559.549 165.846 559.542 165.82C558.7 163.949 558.486 161.856 558.93 159.853C559.373 157.85 560.452 156.044 562.005 154.704C565.535 151.805 570.387 151.7 574.683 152.496C577.36 153.045 579.973 153.871 582.479 154.959C582.479 154.959 582.494 154.884 582.494 154.869Z" fill="#263238"/>
<path d="M585.408 184.266C585.408 184.266 590.486 178.257 593.249 180.165C596.013 182.073 591.747 190.995 588.217 191.957C587.77 192.112 587.296 192.175 586.823 192.142C586.351 192.109 585.89 191.981 585.469 191.765C585.048 191.548 584.675 191.249 584.372 190.884C584.07 190.52 583.845 190.097 583.711 189.643L585.408 184.266Z" fill="#EB9481"/>
<path d="M570.672 206.828L575.404 218.229L589.479 203.583L593.565 208.18C593.565 208.18 579.895 231.372 579.805 230.336L574.984 220.512L568.239 227.482L568.584 210.237L570.672 206.828Z" fill="white"/>
<path d="M567.924 218.92C568.074 216.066 568.164 213.197 568.449 210.373C568.449 210.268 568.615 210.222 568.63 210.373C569.23 213.107 568.63 223.982 568.63 226.596C568.915 226.295 574.878 220.482 574.939 220.587C575.975 222.089 579.535 229.284 579.775 229.945C581.938 226.265 590.29 212.866 592.784 209.381C592.799 209.365 592.82 209.354 592.842 209.35C592.864 209.346 592.887 209.349 592.907 209.359C592.928 209.369 592.944 209.386 592.954 209.406C592.965 209.426 592.968 209.449 592.964 209.471C591.056 213.362 580.091 231.387 579.926 231.342C578.061 227.972 576.371 224.507 574.863 220.963C573.857 222.224 567.848 228.789 567.818 228.353C567.693 225.209 567.728 222.06 567.924 218.92Z" fill="#263238"/>
<defs>
<linearGradient id="paint0_linear_379_5971" x1="110.827" y1="5.16731" x2="119.84" y2="14.1801" gradientUnits="userSpaceOnUse">
<stop stop-color="#2F80ED"/>
<stop offset="1" stop-color="#56CCF2"/>
</linearGradient>
<linearGradient id="paint1_linear_379_5971" x1="345.26" y1="251.095" x2="407.715" y2="297.372" gradientUnits="userSpaceOnUse">
<stop stop-color="#00C4B4"/>
<stop offset="1" stop-color="#70EFDE"/>
</linearGradient>
<linearGradient id="paint2_linear_379_5971" x1="377.92" y1="251.095" x2="406.575" y2="268.057" gradientUnits="userSpaceOnUse">
<stop stop-color="#2F80ED"/>
<stop offset="1" stop-color="#56CCF2"/>
</linearGradient>
<linearGradient id="paint3_linear_379_5971" x1="384.251" y1="263.047" x2="404.423" y2="263.197" gradientUnits="userSpaceOnUse">
<stop stop-color="#F88B36"/>
<stop offset="1" stop-color="#FABF2F"/>
</linearGradient>
<linearGradient id="paint4_linear_379_5971" x1="414.121" y1="313.616" x2="389.653" y2="313.499" gradientUnits="userSpaceOnUse">
<stop stop-color="#8C2CE2"/>
<stop offset="1" stop-color="#5809DF"/>
</linearGradient>
<linearGradient id="paint5_linear_379_5971" x1="248.881" y1="251.095" x2="307.65" y2="287.971" gradientUnits="userSpaceOnUse">
<stop stop-color="#00C4B4"/>
<stop offset="1" stop-color="#70EFDE"/>
</linearGradient>
<linearGradient id="paint6_linear_379_5971" x1="309.858" y1="300.042" x2="281.245" y2="283.109" gradientUnits="userSpaceOnUse">
<stop stop-color="#4048EF"/>
<stop offset="1" stop-color="#5A7BEF"/>
</linearGradient>
<linearGradient id="paint7_linear_379_5971" x1="314.184" y1="287.282" x2="280.864" y2="287.149" gradientUnits="userSpaceOnUse">
<stop stop-color="#8C2CE2"/>
<stop offset="1" stop-color="#5809DF"/>
</linearGradient>
<linearGradient id="paint8_linear_379_5971" x1="288.078" y1="241.767" x2="318.788" y2="266.644" gradientUnits="userSpaceOnUse">
<stop stop-color="#2F80ED"/>
<stop offset="1" stop-color="#56CCF2"/>
</linearGradient>
<linearGradient id="paint9_linear_379_5971" x1="151.239" y1="251.095" x2="200.289" y2="279.304" gradientUnits="userSpaceOnUse">
<stop stop-color="#00C4B4"/>
<stop offset="1" stop-color="#70EFDE"/>
</linearGradient>
<linearGradient id="paint10_linear_379_5971" x1="183.83" y1="251.095" x2="214.722" y2="273.226" gradientUnits="userSpaceOnUse">
<stop stop-color="#2F80ED"/>
<stop offset="1" stop-color="#56CCF2"/>
</linearGradient>
<linearGradient id="paint11_linear_379_5971" x1="190.212" y1="266.429" x2="210.357" y2="266.58" gradientUnits="userSpaceOnUse">
<stop stop-color="#F88B36"/>
<stop offset="1" stop-color="#FABF2F"/>
</linearGradient>
<linearGradient id="paint12_linear_379_5971" x1="225.754" y1="308.627" x2="194.255" y2="267.498" gradientUnits="userSpaceOnUse">
<stop stop-color="#4048EF"/>
<stop offset="1" stop-color="#5A7BEF"/>
</linearGradient>
<linearGradient id="paint13_linear_379_5971" x1="443.031" y1="251.095" x2="494.57" y2="276.318" gradientUnits="userSpaceOnUse">
<stop stop-color="#2F80ED"/>
<stop offset="1" stop-color="#56CCF2"/>
</linearGradient>
<linearGradient id="paint14_linear_379_5971" x1="513.891" y1="272.702" x2="480.572" y2="272.56" gradientUnits="userSpaceOnUse">
<stop stop-color="#8C2CE2"/>
<stop offset="1" stop-color="#5809DF"/>
</linearGradient>
<linearGradient id="paint15_linear_379_5971" x1="480.908" y1="287.452" x2="499.643" y2="287.643" gradientUnits="userSpaceOnUse">
<stop stop-color="#F88B36"/>
<stop offset="1" stop-color="#FABF2F"/>
</linearGradient>
<linearGradient id="paint16_linear_379_5971" x1="170.341" y1="160.487" x2="196.377" y2="166.573" gradientUnits="userSpaceOnUse">
<stop stop-color="#2F80ED"/>
<stop offset="1" stop-color="#56CCF2"/>
</linearGradient>
<linearGradient id="paint17_linear_379_5971" x1="195.817" y1="135.642" x2="222.554" y2="140.034" gradientUnits="userSpaceOnUse">
<stop stop-color="#00C4B4"/>
<stop offset="1" stop-color="#70EFDE"/>
</linearGradient>
<linearGradient id="paint18_linear_379_5971" x1="221.278" y1="153.547" x2="247.587" y2="159.047" gradientUnits="userSpaceOnUse">
<stop stop-color="#2F80ED"/>
<stop offset="1" stop-color="#56CCF2"/>
</linearGradient>
<linearGradient id="paint19_linear_379_5971" x1="246.739" y1="131.721" x2="273.539" y2="135.926" gradientUnits="userSpaceOnUse">
<stop stop-color="#2F80ED"/>
<stop offset="1" stop-color="#56CCF2"/>
</linearGradient>
<linearGradient id="paint20_linear_379_5971" x1="272.2" y1="143.453" x2="298.786" y2="148.27" gradientUnits="userSpaceOnUse">
<stop stop-color="#00C4B4"/>
<stop offset="1" stop-color="#70EFDE"/>
</linearGradient>
<linearGradient id="paint21_linear_379_5971" x1="297.661" y1="186.384" x2="321.034" y2="196.156" gradientUnits="userSpaceOnUse">
<stop stop-color="#2F80ED"/>
<stop offset="1" stop-color="#56CCF2"/>
</linearGradient>
<linearGradient id="paint22_linear_379_5971" x1="395.945" y1="154.118" x2="430.645" y2="191.826" gradientUnits="userSpaceOnUse">
<stop stop-color="#2F80ED"/>
<stop offset="1" stop-color="#56CCF2"/>
</linearGradient>
<linearGradient id="paint23_linear_379_5971" x1="353.33" y1="113.762" x2="428.893" y2="189.439" gradientUnits="userSpaceOnUse">
<stop stop-color="#2F80ED"/>
<stop offset="1" stop-color="#56CCF2"/>
</linearGradient>
<linearGradient id="paint24_linear_379_5971" x1="368.115" y1="122.462" x2="414.779" y2="122.976" gradientUnits="userSpaceOnUse">
<stop stop-color="#F88B36"/>
<stop offset="1" stop-color="#FABF2F"/>
</linearGradient>
<linearGradient id="paint25_linear_379_5971" x1="353.33" y1="113.718" x2="419.259" y2="188.712" gradientUnits="userSpaceOnUse">
<stop stop-color="#00C4B4"/>
<stop offset="1" stop-color="#70EFDE"/>
</linearGradient>
<linearGradient id="paint26_linear_379_5971" x1="449.361" y1="170.131" x2="457.337" y2="178.107" gradientUnits="userSpaceOnUse">
<stop stop-color="#2F80ED"/>
<stop offset="1" stop-color="#56CCF2"/>
</linearGradient>
<linearGradient id="paint27_linear_379_5971" x1="151.414" y1="513.697" x2="159.42" y2="521.703" gradientUnits="userSpaceOnUse">
<stop stop-color="#2F80ED"/>
<stop offset="1" stop-color="#56CCF2"/>
</linearGradient>
<linearGradient id="paint28_linear_379_5971" x1="149.521" y1="446.882" x2="186.829" y2="539.891" gradientUnits="userSpaceOnUse">
<stop stop-color="#2F80ED"/>
<stop offset="1" stop-color="#56CCF2"/>
</linearGradient>
<linearGradient id="paint29_linear_379_5971" x1="149.597" y1="446.252" x2="164.278" y2="507.377" gradientUnits="userSpaceOnUse">
<stop stop-color="#2F80ED"/>
<stop offset="1" stop-color="#56CCF2"/>
</linearGradient>
<linearGradient id="paint30_linear_379_5971" x1="348.328" y1="479.839" x2="358.347" y2="489.858" gradientUnits="userSpaceOnUse">
<stop stop-color="#2F80ED"/>
<stop offset="1" stop-color="#56CCF2"/>
</linearGradient>
<linearGradient id="paint31_linear_379_5971" x1="363.034" y1="423.449" x2="380.344" y2="438.469" gradientUnits="userSpaceOnUse">
<stop stop-color="#2F80ED"/>
<stop offset="1" stop-color="#56CCF2"/>
</linearGradient>
<linearGradient id="paint32_linear_379_5971" x1="411.928" y1="423.449" x2="431.782" y2="440.773" gradientUnits="userSpaceOnUse">
<stop stop-color="#2F80ED"/>
<stop offset="1" stop-color="#56CCF2"/>
</linearGradient>
<linearGradient id="paint33_linear_379_5971" x1="461.183" y1="423.449" x2="488.776" y2="437.687" gradientUnits="userSpaceOnUse">
<stop stop-color="#2F80ED"/>
<stop offset="1" stop-color="#56CCF2"/>
</linearGradient>
<linearGradient id="paint34_linear_379_5971" x1="498.811" y1="423.449" x2="533.186" y2="451.736" gradientUnits="userSpaceOnUse">
<stop stop-color="#2F80ED"/>
<stop offset="1" stop-color="#56CCF2"/>
</linearGradient>
<linearGradient id="paint35_linear_379_5971" x1="136.018" y1="31.9502" x2="142.177" y2="38.1089" gradientUnits="userSpaceOnUse">
<stop stop-color="#2F80ED"/>
<stop offset="1" stop-color="#56CCF2"/>
</linearGradient>
<linearGradient id="paint36_linear_379_5971" x1="43.2043" y1="344.164" x2="89.3738" y2="350.069" gradientUnits="userSpaceOnUse">
<stop stop-color="#2F80ED"/>
<stop offset="1" stop-color="#56CCF2"/>
</linearGradient>
<linearGradient id="paint37_linear_379_5971" x1="28.1267" y1="344.542" x2="96.7934" y2="363.219" gradientUnits="userSpaceOnUse">
<stop stop-color="#00C4B4"/>
<stop offset="1" stop-color="#70EFDE"/>
</linearGradient>
<linearGradient id="paint38_linear_379_5971" x1="61.4613" y1="362.029" x2="20.7935" y2="368.148" gradientUnits="userSpaceOnUse">
<stop offset="0.317708" stop-color="#02C9A8"/>
<stop offset="1" stop-color="#ABC7FF"/>
</linearGradient>
<linearGradient id="paint39_linear_379_5971" x1="67.4004" y1="403.758" x2="154.6" y2="433.981" gradientUnits="userSpaceOnUse">
<stop stop-color="#2F80ED"/>
<stop offset="1" stop-color="#56CCF2"/>
</linearGradient>
<linearGradient id="paint40_linear_379_5971" x1="70.1792" y1="402.84" x2="144.641" y2="440.155" gradientUnits="userSpaceOnUse">
<stop stop-color="#00C4B4"/>
<stop offset="1" stop-color="#70EFDE"/>
</linearGradient>
<linearGradient id="paint41_linear_379_5971" x1="0.699219" y1="437.166" x2="96.5205" y2="501.123" gradientUnits="userSpaceOnUse">
<stop stop-color="#2F80ED"/>
<stop offset="1" stop-color="#56CCF2"/>
</linearGradient>
<linearGradient id="paint42_linear_379_5971" x1="0" y1="436.713" x2="64.1797" y2="495.669" gradientUnits="userSpaceOnUse">
<stop stop-color="#00C4B4"/>
<stop offset="1" stop-color="#70EFDE"/>
</linearGradient>
<linearGradient id="paint43_linear_379_5971" x1="473.085" y1="589.494" x2="491.915" y2="646.491" gradientUnits="userSpaceOnUse">
<stop stop-color="#2F80ED"/>
<stop offset="1" stop-color="#56CCF2"/>
</linearGradient>
<linearGradient id="paint44_linear_379_5971" x1="538.7" y1="590.531" x2="557.361" y2="647.339" gradientUnits="userSpaceOnUse">
<stop stop-color="#2F80ED"/>
<stop offset="1" stop-color="#56CCF2"/>
</linearGradient>
<linearGradient id="paint45_linear_379_5971" x1="478.202" y1="206.227" x2="531.851" y2="299.297" gradientUnits="userSpaceOnUse">
<stop stop-color="#2F80ED"/>
<stop offset="1" stop-color="#56CCF2"/>
</linearGradient>
<linearGradient id="paint46_linear_379_5971" x1="536.169" y1="206.888" x2="600.472" y2="226.72" gradientUnits="userSpaceOnUse">
<stop stop-color="#2F80ED"/>
<stop offset="1" stop-color="#56CCF2"/>
</linearGradient>
<linearGradient id="paint47_linear_379_5971" x1="585.649" y1="204.527" x2="657.25" y2="228.432" gradientUnits="userSpaceOnUse">
<stop stop-color="#2F80ED"/>
<stop offset="1" stop-color="#56CCF2"/>
</linearGradient>
<linearGradient id="paint48_linear_379_5971" x1="587.982" y1="207.13" x2="680.52" y2="262.139" gradientUnits="userSpaceOnUse">
<stop stop-color="#2F80ED"/>
<stop offset="1" stop-color="#56CCF2"/>
</linearGradient>
<linearGradient id="paint49_linear_379_5971" x1="606.168" y1="271.044" x2="647.633" y2="312.165" gradientUnits="userSpaceOnUse">
<stop stop-color="#2F80ED"/>
<stop offset="1" stop-color="#56CCF2"/>
</linearGradient>
</defs>
</svg>
