<svg width="50" height="62" viewBox="0 0 50 62" fill="none" xmlns="http://www.w3.org/2000/svg">
<path fill-rule="evenodd" clip-rule="evenodd" d="M0.000976563 61.0179C16.5354 59.5952 29.5223 46.6048 29.5223 30.8479C29.5223 15.0892 16.5354 2.10061 0.000976562 0.677834L0.000976563 12.5492C10.0067 13.8604 17.7144 21.5664 17.7144 30.8479C17.7144 37.8862 13.2822 44.0185 6.77668 47.1433L3.01824 47.1433C1.755 47.1433 0.673172 47.9589 0.223608 49.1163C0.149526 49.1268 0.0753146 49.1369 0.000976563 49.1466L0.000976563 61.0179Z" fill="white"/>
<path opacity="0.9" d="M49.5397 24.1125C49.5397 37.0444 39.0191 47.5651 26.0836 47.5651L2.59155 47.5651C1.16019 47.5651 0 48.7253 0 50.1566L0 35.7555L26.0836 35.7555C32.5059 35.7555 37.7319 30.5313 37.7319 24.1107C37.7319 17.6902 32.5076 12.4625 26.0836 12.4625L0 12.4625L0 0.656395L26.0836 0.656395C39.0191 0.656395 49.5397 11.177 49.5397 24.1125Z" fill="url(#paint0_linear_379_5959)"/>
<defs>
<linearGradient id="paint0_linear_379_5959" x1="44.3997" y1="4.08525" x2="-6.03381" y2="38.7556" gradientUnits="userSpaceOnUse">
<stop offset="0.226493" stop-color="#02C9A8"/>
<stop offset="1" stop-color="#ABC7FF"/>
</linearGradient>
</defs>
</svg>
