<svg xmlns="http://www.w3.org/2000/svg" width="480" height="480" viewBox="-3 0 30 30" fill="none">
  <path fill-rule="evenodd" clip-rule="evenodd" d="M0 29.9997C8.21695 29.2937 14.6715 22.8366 14.6715 15.0061C14.6715 7.17567 8.21695 0.718577 0 0.0125732V5.91311C4.97294 6.56501 8.80443 10.3939 8.80443 15.0061C8.80443 18.5027 6.60139 21.5508 3.36769 23.1046H1.49961C0.870907 23.1046 0.334963 23.5091 0.110794 24.0863C0.0747211 24.0914 0.0360732 24.0966 0 24.1017V24.6815V25.2406V29.9997Z" fill="#0A3690"></path>
  <path opacity="0.9" d="M24.6199 11.6594C24.6199 18.0855 19.3919 23.3136 12.9632 23.3136H1.28833C0.577171 23.3136 0 23.8908 0 24.6019V17.444H12.9632C16.1556 17.444 18.7529 14.8467 18.7529 11.6568C18.7529 8.46689 16.1556 5.86704 12.9632 5.86704H0V0H12.9632C19.3919 0.00257666 24.6199 5.23319 24.6199 11.6594Z" fill="url(#paint0_linear_518_2522)"></path>
  <defs>
    <linearGradient id="paint0_linear_518_2522" x1="22.2895" y1="2.03466" x2="-2.77421" y2="19.2644" gradientUnits="userSpaceOnUse">
      <stop offset="0.2265" stop-color="#02C9A8"></stop>
      <stop offset="1" stop-color="#ABC7FF"></stop>
    </linearGradient>
  </defs>
</svg>
